<?xml version="1.0" encoding="UTF-8"?>
<svg width="740px" height="680px" viewBox="0 0 740 680" version="1.1" xmlns="http://www.w3.org/2000/svg" xmlns:xlink="http://www.w3.org/1999/xlink">
    <title>Contibute Illo</title>
    <g id="Contibute-Illo" stroke="none" stroke-width="1" fill="none" fill-rule="evenodd">
        <g id="Background-Shape-2-Copy" opacity="0.6" transform="translate(25.000000, 329.000000)" fill="#DDE3E9">
            <path d="M661.71121,146.152379 C671.360993,211.476278 437.337348,254.084822 235.907772,224.349347 C34.4781963,194.613871 -57.9281424,78.4934855 38.190693,16.6199792 C134.309528,-45.253527 652.061428,80.8284801 661.71121,146.152379 Z" id="Background-Shape"></path>
        </g>
        <g id="Group-3" transform="translate(16.000000, 220.000000)">
            <g id="A-Human/Standing" transform="translate(430.495549, 0.000000)">
                <g id="Group" transform="translate(82.000000, 0.000000)">
                    <g id="Head" transform="translate(54.000000, 31.000000)" fill="#B28B67">
                        <path d="M38.1433414,9.13393292 C43.9381521,19.9350547 43.249578,47.3329958 35.7603014,49.2634576 C32.773664,50.0333035 26.4113241,48.1475566 19.935865,44.2446031 L24,73 L0,73 L8.26160177,34.4893378 C3.65406109,29.0807313 0.535660132,22.452516 1.05677633,15.0254539 C2.55833022,-6.37502057 32.3485306,-1.66718886 38.1433414,9.13393292 Z" id="Head-[skin]"></path>
                    </g>
                    <path d="M74,29 C86.8690713,29 91.7485692,34.3062174 92,39 C86.9777323,40.3802828 78.5371266,40.9875703 66.6089249,41.0100681 L65.1895125,41.0100283 C64.4717569,41.0086707 63.7419241,41.0053152 63,41 L63,42 L75,43 L77,49 C73.818039,48.7624584 71.5442321,50.9450202 69.7297608,53.8671184 C68.9456796,53.3278818 68.0076493,53 67,53 C64.2385763,53 62,55.4624339 62,58 C62,60.6396292 63.2463746,62.6806558 65.0263305,63.5467302 C64.0760809,65.4058117 63.1200109,66.7549645 62,67 C57.6781395,66.5628085 52,55.8205201 52,47 C52,37.3455086 59.6819829,29 74,29 Z" id="Combined-Shape" fill="#191847"></path>
                </g>
                <g id="Group" transform="translate(0.000000, 187.000000)">
                    <polygon id="[skin]-Leg" fill="#B28B67" points="128 9.9475983e-14 165.630838 123.024171 183.860154 227.648304 198.153197 227.648304 178.890974 9.9475983e-14"></polygon>
                    <polygon id="Shadow" fill-opacity="0.1" fill="#000000" points="128 9.9475983e-14 165.630838 123.024171 183.860154 227.648304 198.153197 227.648304 178.890974 9.9475983e-14"></polygon>
                    <path d="M114.537727,0 C117.093705,67.5468821 114.085665,102.388787 113.513606,108.525715 C112.941548,114.662643 105.108196,154.454812 86.5636874,229.708469 L101.793992,224.477699 C131.10186,155.458959 141.088936,119.5887 144.450326,110.525715 C147.811717,101.46273 156.739403,64.6208249 171.233385,0 L114.537727,0 Z" id="[skin]-Leg" fill="#B28B67"></path>
                    <g transform="translate(84.000000, 199.000000)" fill="#E4E4E4" id="shoe">
                        <path d="M2.67813181,25.4019242 C1.55937727,28.3884109 1,30.6229931 1,32.1056708 C1,33.908957 1.3004142,36.5404001 1.90124261,40 C3.99318117,40 22.7937852,40 58.3030548,40 C59.768738,35.1545073 58.9226607,32.5385816 55.7648228,32.1522232 C52.606985,31.7658647 49.9837155,31.4170139 47.8950143,31.1056708 L21.6799926,19.4188835 C21.1755635,19.1940064 20.584344,19.4206282 20.359467,19.9250573 C20.35562,19.9336867 20.3518954,19.9423702 20.3482945,19.9511052 L18.6632131,24.038695 L18.6632131,24.038695 C15.7398812,25.4026522 13.3643706,26.0846307 11.5366811,26.0846307 C10.0517269,26.0846307 8.00099246,25.4849054 5.38447792,24.2854549 L5.38448339,24.285443 C4.38038273,23.8251478 3.19325534,24.2659892 2.73296014,25.2700899 C2.71312074,25.3133681 2.69483298,25.3573409 2.67813181,25.4019242 Z"></path>
                    </g>
                    <g transform="translate(178.000000, 199.000000)" fill="#E4E4E4" id="shoe">
                        <path d="M2.67813181,25.4019242 C1.55937727,28.3884109 1,30.6229931 1,32.1056708 C1,33.908957 1.3004142,36.5404001 1.90124261,40 C3.99318117,40 22.7937852,40 58.3030548,40 C59.768738,35.1545073 58.9226607,32.5385816 55.7648228,32.1522232 C52.606985,31.7658647 49.9837155,31.4170139 47.8950143,31.1056708 L21.6799926,19.4188835 C21.1755635,19.1940064 20.584344,19.4206282 20.359467,19.9250573 C20.35562,19.9336867 20.3518954,19.9423702 20.3482945,19.9511052 L18.6632131,24.038695 L18.6632131,24.038695 C15.7398812,25.4026522 13.3643706,26.0846307 11.5366811,26.0846307 C10.0517269,26.0846307 8.00099246,25.4849054 5.38447792,24.2854549 L5.38448339,24.285443 C4.38038273,23.8251478 3.19325534,24.2659892 2.73296014,25.2700899 C2.71312074,25.3133681 2.69483298,25.3573409 2.67813181,25.4019242 Z"></path>
                    </g>
                    <polygon id="Bottom" fill="#242F6E" points="123 0 139 62.6795201 187.870318 62.6795201 180.583554 0"></polygon>
                    <path d="M114,-3.55271368e-15 C108.735439,15.7805461 107.735439,36.6737195 111,62.6795201 L160.870318,62.6795201 L174.583554,-3.55271368e-15 L114,-3.55271368e-15 Z" id="Bottom" fill="#3F51B1"></path>
                </g>
                <g id="Group" transform="translate(22.000000, 82.000000)">
                    <path d="M68.3079281,93.0198914 L89.2053198,93.1020711 C78.4956844,127.674615 71.8763087,148.777448 69.3471926,156.410568 L69.088982,157.185464 C68.7122581,158.308737 68.4519068,159.048781 68.3079281,159.405597 C65.9939846,165.140133 70.8906002,173.873732 72.9845874,178.567103 C66.1645409,181.61887 66.8912241,170.316929 58.2879189,174.319492 C56.5428749,175.131349 54.8906295,176.089688 53.276551,177.027882 L52.7398634,177.339639 C52.5613888,177.443156 52.3833105,177.546197 52.2055535,177.648531 L51.6731714,177.953189 C46.6232753,180.822978 41.7734982,182.933781 35.3890352,178.994371 C34.2736052,178.306117 33.0512757,175.714714 36.0045784,173.68967 C38.2342008,172.160845 40.7618228,170.284476 43.2419631,168.330709 L43.9842353,167.742526 C49.4120517,163.416125 54.4428443,158.845865 55.3979297,156.908251 C57.3515741,152.944826 61.6549068,131.648706 68.3079281,93.0198914 L68.3079281,93.0198914 Z M194.04441,89.1225115 L222.372314,116.757535 C230.61469,120.273345 237.368143,124.155511 242.632673,128.40403 C243.816587,129.832102 245.10547,132.568362 239.535214,131.343925 C238.999612,131.22619 238.460831,131.110185 237.923503,130.998275 L237.279704,130.866101 C232.460889,129.891811 227.909884,129.325933 227.003896,130.893567 C225.956977,132.705055 229.041811,135.480899 227.106974,137.851671 C225.817082,139.432186 221.479076,134.404878 214.092956,122.769747 L184.635682,105.402467 L194.04441,89.1225115 Z" id="Arms-[skin]" fill="#B28B67"></path>
                    <path d="M122.01899,9.23199981 L130.503942,7.00082913 C148.576175,42.7520052 177.414525,74.1501034 217.01899,101.195124 L192.061793,137.56505 C151.33882,97.6857553 124.670571,55.1985909 122.01899,9.23199981 Z" id="Coat-Back" fill="#242F6E" transform="translate(169.518990, 72.282940) rotate(5.000000) translate(-169.518990, -72.282940) "></path>
                    <path d="M90,114 L167,114 C149.16087,70.6251468 140.241304,33.7787236 140.241304,3.4607303 L117.014208,0 C98.7598929,29.3584068 93.6048263,65.5045499 90,114 Z" id="Shirt" fill="#DDE3E9"></path>
                    <path d="M118.047752,-4.26325641e-14 C119.86198,0.0624731357 122.625282,0.175030894 126.337658,0.337673275 L126.337658,0.337673275 L131.950158,16.3768801 C132.543836,35.9324229 136.010826,75.3421183 142.351127,134.605966 L142.351127,134.605966 L91.8760675,134.60553 C92.008386,138.698782 92.2265651,142.830272 92.5306047,147 L92.5306047,147 L55,147 C60.6139164,83.6639633 81.1152373,34.6639633 116.503963,1.42108547e-14 L116.503963,1.42108547e-14 L116.522,0.017 L116.531583,-4.26325641e-14 Z" id="Coat-Front" fill="#3F51B1"></path>
                    <path d="M106,135 L91.889057,134.999288 C91.2713571,116.643048 92.3783198,99.0548837 95.2099449,82.2347951 C96.6469231,107.748771 100.243477,125.3371 106,135 Z" id="Shade" fill-opacity="0.1" fill="#000000"></path>
                    <polygon id="Light" fill-opacity="0.2" fill="#FFFFFF" points="103.110899 104 128 92.4292718 128 104"></polygon>
                </g>
            </g>
            <g id="ðŸ˜Human/Standing" transform="translate(287.498516, 0.000000)">
                <g id="Head/Front" transform="translate(82.000000, 0.000000)">
                    <g id="Head" transform="translate(54.000000, 31.000000)" fill="#FCD0B4">
                        <path d="M38.1433414,9.13393292 C43.9381521,19.9350547 43.249578,47.3329958 35.7603014,49.2634576 C32.773664,50.0333035 26.4113241,48.1475566 19.935865,44.2446031 L24,73 L0,73 L8.26160177,34.4893378 C3.65406109,29.0807313 0.535660132,22.452516 1.05677633,15.0254539 C2.55833022,-6.37502057 32.3485306,-1.66718886 38.1433414,9.13393292 Z" id="Head-[skin]"></path>
                    </g>
                    <path d="M79.1320584,29.6205713 C85.8659611,30.1981637 91.8790132,32.2515132 93.5831606,33.4709469 C93.5831606,39.8461712 92.3478701,41.7376815 81.7968056,41.5709519 C79.2045191,42.9399877 77.211635,45.2973585 75.1359806,48.3879237 C76.0537047,61.185356 78.4839205,67.5846937 82.4257914,67.5846937 C88.3385979,67.5846937 93.355194,63.8310443 95.9495915,63.8310443 C97.8408192,63.8310443 97.4185661,66.1977405 96.1649615,67.9524776 C95.1306973,69.4001921 90.0939174,70.7956158 90.0939174,73.0400595 C90.0939174,74.1943448 91.1464476,74.2957369 92.1689056,74.3029806 L92.6726165,74.3031953 C93.4366754,74.305134 94.0733913,74.3467822 94.0733913,74.8792364 C94.0733913,77.0810973 94.7727779,81.2209894 90.9512241,81.2209894 C87.0836843,81.2209894 75.9947625,79.8115837 74.0944216,74.0714721 C72.8680535,70.367142 72.0750985,62.6912593 71.7155566,51.0438241 C71.4812891,51.0143652 71.2423222,51 71,51 C67.6862915,51 65,53.6862915 65,57 C65,58.6822183 65.6922919,60.2027431 66.807515,61.292214 C65.4191964,63.2518162 63.8632894,65.2988831 62.0803863,67.4111902 C55.3824054,63.3926741 50.4121226,51.6289713 56.9604861,40.3282783 C58.7704744,34.7922446 62.8680346,31.8352408 67.7073518,30.4622091 C71.6274481,28.8224203 75.6968791,28.6375327 79.1320584,29.6205713 Z" id="Hair" fill="#191847"></path>
                </g>
                <g id="Bottom/Skinny-Jeans-1" transform="translate(0.000000, 187.000000)">
                    <polygon id="Leg-[skin]" fill="#B28B67" points="128 9.9475983e-14 164.630838 126.226909 181.860154 221 199.153197 221 181.890974 9.9475983e-14"></polygon>
                    <polygon id="Shadow" fill-opacity="0.1" fill="#000000" points="128 9.9475983e-14 164.630838 126.226909 181.860154 221 199.153197 221 181.890974 9.9475983e-14"></polygon>
                    <path d="M111.537727,0 C114.093705,65.5742244 113.085665,101.340188 112.513606,107.297892 C111.941548,113.255595 108.69393,153.156298 86.5636874,223 L104.549973,223 C133.85784,155.996902 144.088936,116.096199 147.450326,107.297892 C150.811717,98.4995844 160.739403,62.7336205 175.233385,0 L111.537727,0 Z" id="Leg-[skin]" fill="#B28B67"></path>
                    <path d="M127.213639,1.13686838e-13 C136.741891,43.4350253 153.221683,112.768359 176.653017,208 L201.946059,208 C203.814239,110.253828 195.86709,45.9204947 182.104613,1.13686838e-13 L127.213639,1.13686838e-13 Z" id="Pant" fill="#AFB9C5"></path>
                    <path d="M111.409919,0 C113.913164,65.5742244 107.425844,130.177256 87.3305078,209.020958 L114.316793,209.020958 C143.678541,143.017859 164.723052,78.7336205 179.105577,0 L111.409919,0 Z" id="Pant" fill="#DDE3E9"></path>
                    <g id="Left-[shoe]" transform="translate(84.000000, 199.000000)" fill="#191847">
                        <path d="M0,37 L0.99242267,21 C6.8029179,22.6994251 14.0806841,22.0327584 22.8257214,19 C32.2287535,25.660617 44.0659431,30.2086712 58.3372903,32.6441626 C59.4261013,32.829999 60.1581292,33.8632891 59.9723163,34.9521041 C59.9602834,35.0226139 59.9444765,35.0924273 59.9249637,35.1612435 L58.5529375,40 L58.5529375,40 L22.8257214,40 L1.98484534,40 L0,37 Z" id="Shoe"></path>
                    </g>
                    <g id="Right-[shoe]" transform="translate(178.000000, 199.000000)" fill="#191847">
                        <path d="M0,37 L0.99242267,21 C6.8029179,22.6994251 14.0806841,22.0327584 22.8257214,19 C32.2287535,25.660617 44.0659431,30.2086712 58.3372903,32.6441626 C59.4261013,32.829999 60.1581292,33.8632891 59.9723163,34.9521041 C59.9602834,35.0226139 59.9444765,35.0924273 59.9249637,35.1612435 L58.5529375,40 L58.5529375,40 L22.8257214,40 L1.98484534,40 L0,37 Z" id="Shoe"></path>
                    </g>
                </g>
                <g id="Body/Long-Sleeve-1" transform="translate(44.000000, 77.000000)">
                    <path d="M38.9697919,72.4496834 L60.8671837,72.5318631 C44.1894326,126.56567 35.3363474,154.856914 34.3079281,157.405597 C31.9939846,163.140133 36.8906002,171.873732 38.9845874,176.567103 C36.0353781,177.886786 34.4973907,176.522357 33.0059077,174.872095 L32.7264664,174.559907 L32.7264664,174.559907 L32.446116,174.244533 C30.663464,172.24449 28.7058324,170.264122 24.2879189,172.319492 C22.7367687,173.041142 21.2589408,173.878532 19.8160657,174.714633 L19.276551,175.027882 C19.1868799,175.080004 19.0973267,175.132064 19.0078819,175.184033 L18.4724394,175.494529 C13.129527,178.584029 8.10952253,181.141118 1.38903521,176.994371 C0.273605235,176.306117 -0.948724292,173.714714 2.00457838,171.68967 C9.36233234,166.644547 19.9653015,157.814672 21.3979297,154.908251 C23.3515741,150.944826 29.2088615,123.458637 38.9697919,72.4496834 L38.9697919,72.4496834 Z M177.493124,97.4603344 L205.821028,125.095357 C214.063404,128.611168 220.816857,132.493333 226.081387,136.741853 C227.265301,138.169925 228.554184,140.906184 222.983927,139.681747 C217.413671,138.45731 211.49953,137.419902 210.45261,139.23139 C209.405691,141.042878 212.490525,143.818722 210.555688,146.189494 C209.265796,147.770009 204.92779,142.742701 197.54167,131.10757 L168.084396,113.74029 L177.493124,97.4603344 Z" id="Arms-[skin]" fill="#FCD0B4"></path>
                    <path d="M100.768272,14.7139848 L109.253224,12.4828141 C127.019938,59.2642227 199.602897,85.8616426 205.451896,103.419063 C207.596879,109.857833 203.154909,113.596168 205.774893,115.385298 L195.29519,124.561394 C193.205566,122.515062 189.513381,126.915723 180.815928,124.824345 C172.118475,122.732967 105.737533,71.5128914 100.768272,14.7139848 Z" id="Clothes-Back" fill="#69A1AC" transform="translate(153.413267, 68.943241) rotate(5.000000) translate(-153.413267, -68.943241) "></path>
                    <path d="M90.3156292,0.279025895 L117.249859,2.16245069 C119.453616,2.31655243 121.115191,4.22797513 120.961089,6.43173278 L120.241614,16.6763485 C119.22167,80.4733311 156.098291,96.7368983 147.887262,122.318245 C141.108761,143.436573 76.2273311,166.138686 65,145.43774 C60.4547451,137.057203 58.3928582,126.921313 58.1593383,115.901428 C55.2906083,124.368441 53.0207635,131.656945 51.3511268,137.767479 C48.4711839,148.30749 37.3062598,149.982871 37.3062598,154.043262 L37.3062598,154.043262 L22.5966299,149.982871 C23.5943495,144.466662 16.6598745,141.780597 18.5191881,129.456905 C26.8498993,74.2402236 49.2328417,34.2151944 85.6680154,9.38181722 L86.0463471,3.9902562 C86.2004489,1.78649855 88.1118716,0.124924148 90.3156292,0.279025895 Z" id="Clothes-Front" fill="#89C5CC"></path>
                </g>
            </g>
            <g id="ðŸ˜Human/Standing" transform="translate(144.501484, 0.000000)">
                <g id="Head/Front" transform="translate(82.000000, 0.000000)">
                    <g id="Head" transform="translate(54.000000, 31.000000)" fill="#57331F">
                        <path d="M38.1433414,9.13393292 C43.9381521,19.9350547 43.249578,47.3329958 35.7603014,49.2634576 C32.773664,50.0333035 26.4113241,48.1475566 19.935865,44.2446031 L24,73 L0,73 L8.26160177,34.4893378 C3.65406109,29.0807313 0.535660132,22.452516 1.05677633,15.0254539 C2.55833022,-6.37502057 32.3485306,-1.66718886 38.1433414,9.13393292 Z" id="Head-[skin]"></path>
                    </g>
                    <path d="M82.6634951,28.3699763 C79.3840534,27.3699763 74.6234565,27.0308443 72.6208149,27.2602642 C73.7600087,24.5308439 74.2120576,21.4899413 73.8435286,18.5290858 C73.4853344,15.6520661 72.1997702,13.2023672 71.0108165,10.6353788 C70.4627695,9.45216518 69.8416903,8.27540043 68.9156982,7.37037661 C67.972405,6.44834378 66.7783223,5.83972796 65.5262119,5.54936581 C64.2448581,5.2521517 62.9050174,5.27689939 61.6216732,5.54662502 C61.0539519,5.66592985 60.5445644,5.92549845 59.9877902,6.0697928 C59.4176191,6.21763405 59.141031,5.86076752 58.7271824,5.50212755 C57.7298424,4.63797369 56.2677456,4.21137833 55.0059895,4.0587004 C53.5903607,3.88748186 52.1214506,4.10102137 50.7713517,4.56639079 C49.457233,5.01942668 48.1947879,5.75508602 47.2446815,6.82681415 C46.8216464,7.30387223 46.4376536,7.8468704 46.188089,8.44637714 C46.0857368,8.69240304 46.0688185,8.83814839 45.8233112,8.9282719 C45.5962532,9.01170466 45.3306889,9.014123 45.0963584,9.0935252 C42.8305256,9.86094542 40.8932607,11.6116631 39.8384289,13.8595111 C39.2230147,15.1708968 38.9314987,17.4797836 39.0113441,20.0676663 C39.0911894,22.655549 41.4279109,29.4080735 43.613439,31.8710732 C45.5642539,34.0695065 48.4317213,35.5202692 51.1990566,36.1553256 C49.36223,38.2548487 48.1395162,40.8784262 47.2353419,43.5466625 C46.2532361,46.4450442 45.6454006,49.4566043 45.4209456,52.525076 C45.2077438,55.4404668 45.187993,58.5235291 45.8714634,61.3766879 C46.5108389,64.0448435 47.8781623,66.233684 50.1607604,67.6222954 C51.2063292,68.2583997 52.331284,68.7362639 53.4627459,69.1730163 C54.5778253,69.6034004 55.6962731,70.021854 56.8643276,70.2633656 C59.0749653,70.7202709 61.6221325,70.641836 63.3249903,68.8822511 C63.9387204,68.2479202 64.6136933,67.450835 65.0614552,66.675918 C65.2224473,66.3972445 65.3195173,66.2149822 65.1239229,65.9425963 C64.8895924,65.6163621 64.5105756,65.3663863 64.2095669,65.1111707 C62.493006,63.6560549 61.4304424,61.7134822 61.1625814,59.4049338 C60.8908162,57.0626093 61.5200101,54.03928 63.7973259,53.0170472 C66.6084499,51.7551569 69.7042766,53.2035819 72.2028323,54.5537417 C73.264707,50.805958 75.4450295,47.4314855 78.8633764,45.7123675 C82.6451998,43.8105035 86.9847925,43.5879355 90.871188,41.9561196 C91.8839153,41.5308947 92.9153983,41.0481938 93.6610301,40.1817828 C93.9726032,39.8196765 94.3381465,39.3499541 94.4625461,38.871042 C94.625988,38.2419509 94.220254,37.7145107 93.9068437,37.2240711 C92.2450186,34.623629 85.9429367,29.3699763 82.6634951,28.3699763 Z" id="hair" fill="#191847"></path>
                </g>
                <g id="Bottom/Skinny-Jeans-1" transform="translate(0.000000, 187.000000)">
                    <polygon id="leg-[skin]" fill="#57331F" points="134 0 183.081639 124.226909 216.000898 229.25029 229 229.25029 178.673688 5.090379e-13"></polygon>
                    <path d="M124.116628,0 C123.593979,43.6541888 115.971833,102.427468 114.754071,105.148648 C113.942229,106.962768 85.9161573,130.032465 30.6758546,174.357739 L39.6290713,183.938736 C104.807511,145.935376 138.9048,124.399339 141.920937,119.330628 C146.445143,111.72756 161.1744,41.763137 173,0 L124.116628,0 Z" id="leg-[skin]" fill="#57331F"></path>
                    <g id="Group" transform="translate(21.000000, 169.000000)" fill="#E4E4E4">
                        <g id="Left-[Shoe]" transform="translate(30.500000, 20.000000) rotate(50.000000) translate(-30.500000, -20.000000) ">
                            <path d="M2.67813181,25.4019242 C1.55937727,28.3884109 1,30.6229931 1,32.1056708 C1,33.908957 1.3004142,36.5404001 1.90124261,40 C3.99318117,40 22.7937852,40 58.3030548,40 C59.768738,35.1545073 58.9226607,32.5385816 55.7648228,32.1522232 C52.606985,31.7658647 49.9837155,31.4170139 47.8950143,31.1056708 L21.6799926,19.4188835 C21.1755635,19.1940064 20.584344,19.4206282 20.359467,19.9250573 C20.35562,19.9336867 20.3518954,19.9423702 20.3482945,19.9511052 L18.6632131,24.038695 L18.6632131,24.038695 C15.7398812,25.4026522 13.3643706,26.0846307 11.5366811,26.0846307 C10.0517269,26.0846307 8.00099246,25.4849054 5.38447792,24.2854549 L5.38448339,24.285443 C4.38038273,23.8251478 3.19325534,24.2659892 2.73296014,25.2700899 C2.71312074,25.3133681 2.69483298,25.3573409 2.67813181,25.4019242 Z" id="shoe"></path>
                        </g>
                    </g>
                    <g id="shoe" transform="translate(208.000000, 199.000000)" fill="#E4E4E4">
                        <path d="M2.67813181,25.4019242 C1.55937727,28.3884109 1,30.6229931 1,32.1056708 C1,33.908957 1.3004142,36.5404001 1.90124261,40 C3.99318117,40 22.7937852,40 58.3030548,40 C59.768738,35.1545073 58.9226607,32.5385816 55.7648228,32.1522232 C52.606985,31.7658647 49.9837155,31.4170139 47.8950143,31.1056708 L21.6799926,19.4188835 C21.1755635,19.1940064 20.584344,19.4206282 20.359467,19.9250573 C20.35562,19.9336867 20.3518954,19.9423702 20.3482945,19.9511052 L18.6632131,24.038695 L18.6632131,24.038695 C15.7398812,25.4026522 13.3643706,26.0846307 11.5366811,26.0846307 C10.0517269,26.0846307 8.00099246,25.4849054 5.38447792,24.2854549 L5.38448339,24.285443 C4.38038273,23.8251478 3.19325534,24.2659892 2.73296014,25.2700899 C2.71312074,25.3133681 2.69483298,25.3573409 2.67813181,25.4019242 Z"></path>
                    </g>
                    <polygon id="Pant" fill="#242F6E" points="167 218.432889 228.804464 211.725327 183 2.84217094e-14 127.644073 2.84217094e-14"></polygon>
                    <path d="M43.4599581,158.900479 L84,206.885961 C126.699953,160.249961 151.594137,129.819963 158.682552,115.595966 C165.770967,101.37197 172.143091,62.839981 177.798925,0 L115.478146,0 C112.388642,55.2838742 110.306102,84.2121259 109.230525,86.7847551 C108.154948,89.3573843 86.2314253,113.395959 43.4599581,158.900479 Z" id="Pant" fill="#3F51B1"></path>
                </g>
                <g id="Body/Long-Sleeve-1" transform="translate(99.000000, 82.000000)">
                    <path d="M159.513547,41.6259545 L159.477848,42.067421 C159.299606,44.4300185 159.355597,46.8608631 161.556381,46.4077826 C163.22284,46.0647049 165.812719,44.690105 168.47285,43.2190702 L169.112193,42.864649 C169.218829,42.8054298 169.325469,42.746176 169.432057,42.6869475 L170.070533,42.3323578 C173.786279,40.2712703 177.305276,38.3877245 178.286431,39.2475996 C180.982176,41.6101262 178.578484,48.864452 175.746364,52.4730906 C170.453134,59.2176317 166.070569,61.5240612 155.238377,64.5443446 C149.574749,66.1235046 143.451364,69.288795 136.868224,74.0402157 L136,58.7398397 L151.246523,50.3642065 C153.385826,42.2239107 155.943102,38.1282526 158.918351,38.0772323 C159.970457,37.5876978 159.694851,39.5030325 159.513547,41.6259545 Z M135.314801,11.541507 L135.153407,11.8285683 L135.153407,11.8285683 L134.831832,12.4045263 C132.2151,17.1152452 129.876358,21.9511069 131.22032,23.3935933 C132.646565,24.9243953 136.203036,22.7859324 137.904525,25.3293729 C139.038851,27.0249998 132.962902,29.703613 119.676679,33.3652124 L94.4557923,56.4576422 L81.6380395,42.7002327 L116.347821,23.6898218 C122.119845,16.8355222 127.806897,11.5121983 133.408976,7.71984988 C133.602245,7.63916306 133.811853,7.56207213 134.027617,7.49594482 L134.213827,7.44212107 C135.86781,6.99343106 137.70794,7.29392289 135.314801,11.541507 Z" id="Arms-[skin]" fill="#57331F"></path>
                    <path d="M65.8579864,34.7503025 C77.8859975,36.5253162 94.3002887,36.5253162 113.103565,28.3861499 L117.443447,44.4123074 C103.805809,54.2415559 85.7127137,61.226516 71.2876941,58.5246963 C59.9199836,56.3955135 56.2717247,41.6595451 65.8579864,34.7503025 Z" id="Sleeve" fill="#AFB9C5" transform="translate(88.898282, 43.748060) rotate(-9.000000) translate(-88.898282, -43.748060) "></path>
                    <path d="M65.5437498,-1.27897692e-13 C67.0746794,19.6687489 74.7801887,41.3453869 81.1040065,62.7603513 C94.0105334,65.9801967 115.654578,62.1842978 146.035933,51.3734208 C153.571674,66.9635189 157.055257,78.0780631 156.486685,84.7170535 C130.420927,98.3327976 108.0808,104.402393 89.6761367,104.801687 C90.2685109,115.717837 88.9396772,126.110233 84.4739328,135.605966 C75.2946804,155.124265 21.5450578,137.048144 3.47278757,140.605966 C-7.84459943,103.85132 14.0379108,88.9143806 14.0555178,65.3966157 C14.0747993,39.6421572 34.7544101,-1.27897692e-13 37.7970006,-1.27897692e-13 L37.7970006,-1.27897692e-13 Z" id="Clothes" fill="#C5CFD6"></path>
                </g>
            </g>
            <g id="ðŸ˜Human/Standing" transform="translate(0.504451, 0.000000)">
                <g id="Head/Front" transform="translate(83.000000, 0.000000)">
                    <path d="M74.5,27 C85.2821207,27 94.2105014,34.9368049 95.7615049,45.2867779 C99.2080531,57.9860871 103.701616,86.5432912 99.1172687,91.0224659 L70.1172687,91.0224659 L70.1089864,90.8685463 C59.3601277,89.6792412 51,80.5659268 51,69.5 L51,48.5 C51,36.6258779 60.6258779,27 72.5,27 L74.5,27 Z" id="Hair-Back" fill="#191847"></path>
                    <g id="Head" transform="translate(54.000000, 31.000000)" fill="#FCD0B4">
                        <path d="M38.1433414,9.13393292 C43.9381521,19.9350547 43.249578,47.3329958 35.7603014,49.2634576 C32.773664,50.0333035 26.4113241,48.1475566 19.935865,44.2446031 L24,73 L0,73 L8.26160177,34.4893378 C3.65406109,29.0807313 0.535660132,22.452516 1.05677633,15.0254539 C2.55833022,-6.37502057 32.3485306,-1.66718886 38.1433414,9.13393292 Z" id="Head-[skin]"></path>
                    </g>
                    <path d="M73.0014183,28 C83.2947789,28 87.3264946,32.2574398 90.2810771,36.4165401 L90.5550718,36.8060348 L90.5550718,36.8060348 L90.8237044,37.1941556 C91.0012165,37.4522677 91.1757867,37.7089322 91.3486809,37.9630857 C89.0214598,45.9483908 79.9899431,47.1322506 71.9650913,52.1099145 C71.0199697,51.3410485 69.8137784,50.8804131 68.5,50.8804131 C65.4624339,50.8804131 63,53.3428469 63,56.3804131 C63,59.4179792 65.4624339,61.8804131 68.5,61.8804131 C68.5838976,61.8804131 68.6673564,61.8785346 68.7503367,61.8748173 C69.8557449,73.7527524 69.4127451,87.3172545 66.1172687,90.5371269 L37.1172687,90.5371269 C36.3255298,76.7810423 39.671095,72.3756552 43.2895028,68.3504123 L43.733674,67.8588154 C47.3679166,63.8496599 51.1172687,59.8545035 51.1172687,46.9027926 C51.3165886,46.7080455 51.5136608,46.5137062 51.7088627,46.3208029 L52.00031,46.0326534 C52.0970229,45.9370483 52.1933155,45.8419307 52.2892348,45.7474291 L52.5759201,45.465901 C53.0299154,45.0218182 53.4764982,44.5946612 53.9207807,44.19836 L53.888877,43.4207004 C58.9105508,33.1402335 65.2813979,28 73.0014183,28 Z" id="Hair-Front" fill="#191847"></path>
                </g>
                <g id="Bottom/Skinny-Jeans-1" transform="translate(0.000000, 182.000000)">
                    <path d="M98.4078252,103.088074 C122.397173,109.797924 143.094458,113.152849 160.499678,113.152849 C177.904899,113.152849 194.071673,107.986324 209,97.6532736 C185.524241,90.7662231 166.190908,87.3226979 151,87.3226979 C135.809092,87.3226979 118.278368,92.5778233 98.4078252,103.088074 Z" id="Skirt-Shadow" fill="#69A1AC"></path>
                    <path d="M181.266835,122.824327 C181.035521,122.476585 180.840175,122.098311 180.685231,121.688552 C177.478637,113.208488 126.116885,21.7255336 121,5 L178.826087,5 C182.716527,17.7166594 200.227018,97.5197596 202.69132,113.441654 C210.466648,138.556719 226.475271,219.895245 228.518903,225.530129 C230.66877,231.457932 218.572184,237.63317 215.348729,230.345671 C210.219667,218.750031 197.998649,186.665102 192.557135,167.074268 C187.455728,148.707903 183.301821,132.184501 181.266835,122.824327 Z" id="Leg-[skin]" fill="#FCD0B4"></path>
                    <path d="M181.266835,122.824327 C181.035521,122.476585 180.840175,122.098311 180.685231,121.688552 C177.478637,113.208488 126.116885,21.7255336 121,5 L178.826087,5 C182.716527,17.7166594 200.227018,97.5197596 202.69132,113.441654 C210.466648,138.556719 226.475271,219.895245 228.518903,225.530129 C230.66877,231.457932 218.572184,237.63317 215.348729,230.345671 C210.219667,218.750031 197.998649,186.665102 192.557135,167.074268 C187.455728,148.707903 183.301821,132.184501 181.266835,122.824327 Z" id="Shadow" fill-opacity="0.1" fill="#000000"></path>
                    <path d="M133.957062,133.993595 C110.475313,139.928474 24.5840287,150.657684 18.6897926,152.340533 C12.6264626,154.07166 7.31008232,141.573779 14.8046857,138.866526 C26.7298651,134.558829 59.589132,124.605712 79.5118243,120.544042 C95.5364316,117.27708 110.159082,114.611243 119.976345,113.050159 C119.144649,85.4734403 115.342756,19.2935455 117.834687,5 L169,5 C166.610405,18.7065491 146.410112,118.717714 142.6556,128.728549 C141.464101,132.302484 137.908919,133.8819 133.957062,133.993595 L133.957062,133.993595 Z" id="Leg-[skin]" fill="#FCD0B4"></path>
                    <g id="Group" transform="translate(-5.000000, 142.000000)" fill="#E4E4E4">
                        <g id="Left-[shoe]" transform="translate(30.500000, 20.000000) rotate(80.000000) translate(-30.500000, -20.000000) ">
                            <path d="M2.67813181,25.4019242 C1.55937727,28.3884109 1,30.6229931 1,32.1056708 C1,33.908957 1.3004142,36.5404001 1.90124261,40 C3.99318117,40 22.7937852,40 58.3030548,40 C59.768738,35.1545073 58.9226607,32.5385816 55.7648228,32.1522232 C52.606985,31.7658647 49.9837155,31.4170139 47.8950143,31.1056708 L21.6799926,19.4188835 C21.1755635,19.1940064 20.584344,19.4206282 20.359467,19.9250573 C20.35562,19.9336867 20.3518954,19.9423702 20.3482945,19.9511052 L18.6632131,24.038695 L18.6632131,24.038695 C15.7398812,25.4026522 13.3643706,26.0846307 11.5366811,26.0846307 C10.0517269,26.0846307 8.00099246,25.4849054 5.38447792,24.2854549 L5.38448339,24.285443 C4.38038273,23.8251478 3.19325534,24.2659892 2.73296014,25.2700899 C2.71312074,25.3133681 2.69483298,25.3573409 2.67813181,25.4019242 Z" id="shoe"></path>
                        </g>
                    </g>
                    <g id="shoe" transform="translate(209.000000, 204.000000)" fill="#E4E4E4">
                        <path d="M2.67813181,25.4019242 C1.55937727,28.3884109 1,30.6229931 1,32.1056708 C1,33.908957 1.3004142,36.5404001 1.90124261,40 C3.99318117,40 22.7937852,40 58.3030548,40 C59.768738,35.1545073 58.9226607,32.5385816 55.7648228,32.1522232 C52.606985,31.7658647 49.9837155,31.4170139 47.8950143,31.1056708 L21.6799926,19.4188835 C21.1755635,19.1940064 20.584344,19.4206282 20.359467,19.9250573 C20.35562,19.9336867 20.3518954,19.9423702 20.3482945,19.9511052 L18.6632131,24.038695 L18.6632131,24.038695 C15.7398812,25.4026522 13.3643706,26.0846307 11.5366811,26.0846307 C10.0517269,26.0846307 8.00099246,25.4849054 5.38447792,24.2854549 L5.38448339,24.285443 C4.38038273,23.8251478 3.19325534,24.2659892 2.73296014,25.2700899 C2.71312074,25.3133681 2.69483298,25.3573409 2.67813181,25.4019242 Z"></path>
                    </g>
                    <path d="M118,5 C140.546839,-1.45073907 161.880173,-1.45073907 182,5 C189,36.9374682 206.00894,49.6134741 209,98.5789257 C175,115.472724 133,86.5304571 98,103.005311 C88,79.9611073 102,24.4645181 118,5 Z" id="Skirt" fill="#C1DEE2"></path>
                </g>
                <g id="Body/Long-Sleeve-1" transform="translate(23.000000, 82.000000)">
                    <path d="M68.3079281,93.0198914 L89.2053198,93.1020711 C78.4956844,127.674615 71.8763087,148.777448 69.3471926,156.410568 L69.088982,157.185464 C68.7122581,158.308737 68.4519068,159.048781 68.3079281,159.405597 C65.9939846,165.140133 70.8906002,173.873732 72.9845874,178.567103 C66.1645409,181.61887 66.8912241,170.316929 58.2879189,174.319492 C56.5428749,175.131349 54.8906295,176.089688 53.276551,177.027882 L52.7398634,177.339639 C52.5613888,177.443156 52.3833105,177.546197 52.2055535,177.648531 L51.6731714,177.953189 C46.6232753,180.822978 41.7734982,182.933781 35.3890352,178.994371 C34.2736052,178.306117 33.0512757,175.714714 36.0045784,173.68967 C38.2342008,172.160845 40.7618228,170.284476 43.2419631,168.330709 L43.9842353,167.742526 C49.4120517,163.416125 54.4428443,158.845865 55.3979297,156.908251 C56.3942883,154.886904 58.0018009,148.357323 60.2204674,137.319509 L60.4843067,136.000143 C62.5731343,125.502185 65.1810081,111.175434 68.3079281,93.0198914 L68.3079281,93.0198914 Z M190.781205,92.2114854 L222.679476,115.635084 C231.330944,117.969562 238.558965,120.874047 244.363541,124.34854 C245.734683,125.597945 247.391836,128.128197 241.70538,127.690906 L241.377006,127.66595 L241.377006,127.66595 L240.719108,127.617916 C235.343868,127.237186 229.972693,127.16129 229.233339,128.988954 C228.448719,130.928516 231.889854,133.24802 230.303794,135.864997 C229.246421,137.609648 224.250967,133.234999 215.31743,122.74105 L183.729774,109.642447 L190.781205,92.2114854 Z" id="Arms-[skin]" fill="#FCD0B4"></path>
                    <path d="M122.731734,9.58031077 L131.216685,7.34914009 C165.5935,32.1628362 183.361709,84.0563407 224.996623,108.72736 L216.58973,121.240539 C147.889238,118.771641 125.383314,55.5469019 122.731734,9.58031077 Z" id="Coat-Back" fill="#E87613" transform="translate(173.864178, 64.294840) rotate(5.000000) translate(-173.864178, -64.294840) "></path>
                    <path d="M90,114 C124.671756,114 150.175573,114 166.511451,114 C170.007634,114 169.348845,108.951637 168.84345,106.404206 C163.010588,77.0037663 140.241304,45.3115155 140.241304,3.4607303 L118.1718,0 C99.917485,29.3584068 93.6048263,65.5045499 90,114 Z" id="Shirt" fill="#DDE3E9"></path>
                    <path d="M116.510031,-7.10542736e-15 C117.255457,-6.66133815e-15 117.93832,0.0466286213 118.558619,0.139885864 L125.471587,0.534739944 C145.293986,67.7151944 150.760885,112.536948 141.872285,135 L141.872285,135 L81.6511486,135.001552 C78.0833907,143.320741 74.6693386,150.320224 71.4089926,156 L71.4089926,156 L55,156 C53.4556773,106.066899 65.3273884,63.686084 90.6151334,28.8575562 C87.4099906,27.9369844 84.8714148,25.7879767 83,22.4111902 C74.933557,7.85607578 77.8467271,-0.157592785 86.4671964,-2.7917309 C95.0876658,-5.42586901 102.775319,-2.04281037e-14 116.510031,-7.10542736e-15 Z" id="Coat-Front" fill="#FF9B21"></path>
                    <path d="M104,135 L81.6515228,135.000679 C85.8135041,125.295819 90.1846546,113.79505 94.7649742,100.498371 C96.6589721,116.343356 99.7372842,127.844605 104,135 Z" id="Shade" fill-opacity="0.1" fill="#000000"></path>
                </g>
            </g>
        </g>
    </g>
</svg>