<?xml version="1.0" encoding="UTF-8"?>
<svg width="740px" height="680px" viewBox="0 0 740 680" version="1.1" xmlns="http://www.w3.org/2000/svg" xmlns:xlink="http://www.w3.org/1999/xlink">
    <title>Explore Illo</title>
    <g id="Explore-Illo" stroke="none" stroke-width="1" fill="none" fill-rule="evenodd">
        <g id="Background-Shape-2" opacity="0.6" transform="translate(39.000000, 333.000000)" fill="#DDE3E9">
            <path d="M661.71121,146.152379 C671.360993,211.476278 437.337348,254.084822 235.907772,224.349347 C34.4781963,194.613871 -57.9281424,78.4934855 38.190693,16.6199792 C134.309528,-45.253527 652.061428,80.8284801 661.71121,146.152379 Z" id="Background-Shape"></path>
        </g>
        <g id="Mobile3" transform="translate(138.000000, 51.000000)">
            <rect id="Container" fill="#F2F2F2" x="0" y="0" width="159" height="302" rx="8"></rect>
            <circle id="Touch" fill="#FFFFFF" cx="79" cy="268" r="15"></circle>
            <g id="Camera" transform="translate(64.000000, 16.000000)" fill="#FFFFFF">
                <circle id="Lens" cx="2" cy="2" r="2"></circle>
                <rect id="Sensor" x="9" y="0" width="21" height="4" rx="2"></rect>
            </g>
            <g id="Rows" transform="translate(14.000000, 28.000000)">
                <g id="Row">
                    <rect id="Background" fill="#FFFFFF" x="0" y="0" width="131" height="54" rx="4"></rect>
                    <g id="Text" transform="translate(39.000000, 16.200000)" fill="#DDE3E9">
                        <rect id="Name" x="0" y="0" width="73" height="8.1" rx="3"></rect>
                        <rect id="Name" x="0" y="13.5" width="49" height="8.1" rx="3"></rect>
                    </g>
                    <circle id="Avatar" fill="#C5CFD6" cx="21" cy="27" r="12"></circle>
                </g>
                <g id="Row" transform="translate(0.000000, 62.000000)">
                    <rect id="Background" fill="#FFFFFF" x="0" y="0" width="131" height="42" rx="4"></rect>
                    <g id="Text" transform="translate(39.000000, 12.600000)" fill="#DDE3E9">
                        <rect id="Name" x="0" y="0" width="73" height="6.3" rx="3"></rect>
                        <rect id="Name" x="0" y="10.5" width="49" height="6.3" rx="3"></rect>
                    </g>
                    <circle id="Avatar" fill="#C5CFD6" cx="21" cy="21" r="12"></circle>
                </g>
                <g id="Row" transform="translate(0.000000, 112.000000)">
                    <rect id="Background" fill="#FFFFFF" x="0" y="0" width="131" height="42" rx="4"></rect>
                    <g id="Text" transform="translate(39.000000, 12.600000)" fill="#DDE3E9">
                        <rect id="Name" x="0" y="0" width="73" height="6.3" rx="3"></rect>
                        <rect id="Name" x="0" y="10.5" width="49" height="6.3" rx="3"></rect>
                    </g>
                    <circle id="Avatar" fill="#AFB9C5" cx="21" cy="21" r="12"></circle>
                </g>
                <g id="Row" transform="translate(0.000000, 162.000000)">
                    <rect id="Background" fill="#FFFFFF" x="0" y="0" width="131" height="42" rx="4"></rect>
                    <g id="Text" transform="translate(39.000000, 12.600000)" fill="#DDE3E9">
                        <rect id="Name" x="0" y="0" width="73" height="6.3" rx="3"></rect>
                        <rect id="Name" x="0" y="10.5" width="49" height="6.3" rx="3"></rect>
                    </g>
                    <circle id="Avatar" fill="#C5CFD6" cx="21" cy="21" r="12"></circle>
                </g>
            </g>
        </g>
        <g id="Mobile3" transform="translate(204.000000, 77.000000)">
            <rect id="Container" fill="#DDE3E9" x="0" y="0" width="159" height="302" rx="8"></rect>
            <circle id="Touch" fill="#FFFFFF" cx="79" cy="268" r="15"></circle>
            <g id="Camera" transform="translate(64.000000, 16.000000)" fill="#FFFFFF">
                <circle id="Lens" cx="2" cy="2" r="2"></circle>
                <rect id="Sensor" x="9" y="0" width="21" height="4" rx="2"></rect>
            </g>
            <g id="Rows" transform="translate(14.000000, 28.000000)">
                <g id="Row">
                    <rect id="Container" fill="#FFFFFF" x="0" y="0" width="131" height="54" rx="4"></rect>
                    <g id="Text-Stuff" transform="translate(9.000000, 16.200000)" fill="#DDE3E9">
                        <rect id="Label" x="0" y="0" width="73" height="8.1" rx="3"></rect>
                        <rect id="Label" x="0" y="13.5" width="49" height="8.1" rx="3"></rect>
                    </g>
                    <g id="Check" transform="translate(110.000000, 20.000000)">
                        <circle id="Background" fill="#DDE3E9" cx="7" cy="7" r="7"></circle>
                        <circle id="Indicator" fill="#F2F2F2" cx="7" cy="7" r="3"></circle>
                    </g>
                </g>
                <g id="Row" transform="translate(0.000000, 62.000000)">
                    <rect id="Background" fill="#FFFFFF" x="0" y="0" width="131" height="42" rx="4"></rect>
                    <g id="Text" transform="translate(39.000000, 12.600000)" fill="#DDE3E9">
                        <rect id="Name" x="0" y="0" width="73" height="6.3" rx="3"></rect>
                        <rect id="Name" x="0" y="10.5" width="49" height="6.3" rx="3"></rect>
                    </g>
                    <circle id="Avatar" fill="#C5CFD6" cx="21" cy="21" r="12"></circle>
                </g>
                <g id="Row" transform="translate(0.000000, 112.000000)">
                    <rect id="Container" fill="#FFFFFF" x="0" y="0" width="131" height="42" rx="4"></rect>
                    <g id="Text-Stuff" transform="translate(9.000000, 12.600000)">
                        <rect id="Label" fill="#DDE3E9" x="0" y="0" width="73" height="6.3" rx="3"></rect>
                        <rect id="Label" fill="#AFB9C5" x="0" y="10.5" width="49" height="6.3" rx="3"></rect>
                    </g>
                    <g id="Check" transform="translate(110.000000, 14.000000)">
                        <circle id="Background" fill="#DDE3E9" cx="7" cy="7" r="7"></circle>
                        <circle id="Indicator" fill="#F2F2F2" cx="7" cy="7" r="3"></circle>
                    </g>
                </g>
                <g id="Row" transform="translate(0.000000, 162.000000)">
                    <rect id="Background" fill="#FFFFFF" x="0" y="0" width="131" height="42" rx="4"></rect>
                    <g id="Text" transform="translate(39.000000, 12.600000)" fill="#DDE3E9">
                        <rect id="Name" x="0" y="0" width="73" height="6.3" rx="3"></rect>
                        <rect id="Name" x="0" y="10.5" width="49" height="6.3" rx="3"></rect>
                    </g>
                    <circle id="Avatar" fill="#C5CFD6" cx="21" cy="21" r="12"></circle>
                </g>
            </g>
        </g>
        <g id="Web" transform="translate(270.000000, 102.000000)">
            <rect id="Container" fill="#F2F2F2" x="0" y="0" width="335" height="346" rx="8"></rect>
            <rect id="Background" fill="#FFFFFF" x="249" y="43" width="70" height="81" rx="8"></rect>
            <g id="Profile-Info" transform="translate(259.000000, 58.000000)" fill="#DDE3E9">
                <circle id="Avatar" cx="25" cy="16" r="16"></circle>
                <rect id="Name" x="0" y="36" width="50" height="6" rx="3"></rect>
                <rect id="Name" x="8" y="46" width="34" height="6" rx="3"></rect>
            </g>
            <path d="M8,0 L327,0 C331.418278,-8.11624501e-16 335,3.581722 335,8 L335,27 L335,27 L0,27 L0,8 C-5.41083001e-16,3.581722 3.581722,8.11624501e-16 8,0 Z" id="Header" fill="#C5CFD6"></path>
            <g id="Buttons" transform="translate(9.000000, 10.000000)" fill="#F2F2F2">
                <circle id="buttons" cx="4" cy="4" r="4"></circle>
                <circle id="buttons" cx="16" cy="4" r="4"></circle>
                <circle id="buttons" cx="28" cy="4" r="4"></circle>
            </g>
            <g id="Components" transform="translate(249.000000, 132.000000)">
                <rect id="Background" fill="#FFFFFF" x="0" y="0" width="70" height="194" rx="8"></rect>
                <g id="Rows" transform="translate(18.000000, 18.000000)">
                    <rect id="Data" fill="#DDE3E9" x="0" y="0" width="34" height="26" rx="4"></rect>
                    <rect id="Data" fill="#AFB9C5" x="0" y="34" width="34" height="25" rx="4"></rect>
                    <rect id="Data" fill="#DDE3E9" x="0" y="67" width="34" height="25" rx="4"></rect>
                    <rect id="Data" fill="#DDE3E9" x="0" y="133" width="34" height="25" rx="4"></rect>
                    <rect id="Data" fill="#C5CFD6" x="0" y="100" width="34" height="25" rx="4"></rect>
                </g>
            </g>
            <g id="Rows" transform="translate(16.000000, 44.000000)">
                <g id="Row">
                    <rect id="Container" fill="#FFFFFF" x="0" y="0" width="225" height="47" rx="4"></rect>
                    <g id="Text-Stuff" transform="translate(9.000000, 14.100000)" fill="#DDE3E9">
                        <rect id="Label" x="0" y="0" width="167" height="7.05" rx="3"></rect>
                        <rect id="Label" x="0" y="11.75" width="112.09589" height="7.05" rx="3"></rect>
                    </g>
                    <g id="Check" transform="translate(193.954198, 16.500000)">
                        <circle id="Background" fill="#DDE3E9" cx="7" cy="7" r="7"></circle>
                        <circle id="Indicator" fill="#F2F2F2" cx="7" cy="7" r="3"></circle>
                    </g>
                </g>
                <g id="Row" transform="translate(0.000000, 55.000000)">
                    <rect id="Container" fill="#FFFFFF" x="0" y="0" width="225" height="39" rx="4"></rect>
                    <g id="Text-Stuff" transform="translate(9.000000, 11.700000)" fill="#DDE3E9">
                        <rect id="Label" x="0" y="0" width="167" height="5.85" rx="2.925"></rect>
                        <rect id="Label" x="0" y="9.75" width="112.09589" height="5.85" rx="2.925"></rect>
                    </g>
                    <g id="Check" transform="translate(193.954198, 12.500000)">
                        <circle id="Background" fill="#DDE3E9" cx="7" cy="7" r="7"></circle>
                        <circle id="Indicator" fill="#F2F2F2" cx="7" cy="7" r="3"></circle>
                    </g>
                </g>
                <g id="Row" transform="translate(0.000000, 102.000000)">
                    <rect id="Container" fill="#FFFFFF" x="0" y="0" width="225" height="39" rx="4"></rect>
                    <g id="Text-Stuff" transform="translate(9.000000, 11.700000)" fill="#DDE3E9">
                        <rect id="Label" x="0" y="0" width="167" height="5.85" rx="2.925"></rect>
                        <rect id="Label" x="0" y="9.75" width="112.09589" height="5.85" rx="2.925"></rect>
                    </g>
                    <g id="Check" transform="translate(193.954198, 12.500000)">
                        <circle id="Background" fill="#DDE3E9" cx="7" cy="7" r="7"></circle>
                        <circle id="Indicator" fill="#AFB9C5" cx="7" cy="7" r="3"></circle>
                    </g>
                </g>
                <g id="Row" transform="translate(0.000000, 243.000000)">
                    <rect id="Container" fill="#FFFFFF" x="0" y="0" width="225" height="39" rx="4"></rect>
                    <g id="Text-Stuff" transform="translate(9.000000, 11.700000)" fill="#DDE3E9">
                        <rect id="Label" x="0" y="0" width="167" height="5.85" rx="2.925"></rect>
                        <rect id="Label" x="0" y="9.75" width="112.09589" height="5.85" rx="2.925"></rect>
                    </g>
                    <g id="Check" transform="translate(193.954198, 12.500000)">
                        <circle id="Background" fill="#DDE3E9" cx="7" cy="7" r="7"></circle>
                        <circle id="Indicator" fill="#F2F2F2" cx="7" cy="7" r="3"></circle>
                    </g>
                </g>
                <g id="Row" transform="translate(0.000000, 196.000000)">
                    <rect id="Container" fill="#FFFFFF" x="0" y="0" width="225" height="39" rx="4"></rect>
                    <g id="Text-Stuff" transform="translate(9.000000, 11.700000)" fill="#DDE3E9">
                        <rect id="Label" x="0" y="0" width="167" height="5.85" rx="2.925"></rect>
                        <rect id="Label" x="0" y="9.75" width="112.09589" height="5.85" rx="2.925"></rect>
                    </g>
                    <g id="Check" transform="translate(193.954198, 12.500000)">
                        <circle id="Background" fill="#DDE3E9" cx="7" cy="7" r="7"></circle>
                        <circle id="Indicator" fill="#F2F2F2" cx="7" cy="7" r="3"></circle>
                    </g>
                </g>
                <g id="Row" transform="translate(0.000000, 149.000000)">
                    <rect id="Container" fill="#FFFFFF" x="0" y="0" width="225" height="39" rx="4"></rect>
                    <g id="Text-Stuff" transform="translate(9.000000, 11.700000)" fill="#DDE3E9">
                        <rect id="Label" x="0" y="0" width="167" height="5.85" rx="2.925"></rect>
                        <rect id="Label" x="0" y="9.75" width="112.09589" height="5.85" rx="2.925"></rect>
                    </g>
                    <g id="Check" transform="translate(193.954198, 12.500000)">
                        <circle id="Background" fill="#DDE3E9" cx="7" cy="7" r="7"></circle>
                        <circle id="Indicator" fill="#F2F2F2" cx="7" cy="7" r="3"></circle>
                    </g>
                </g>
            </g>
        </g>
        <g id="Group-3" transform="translate(183.000000, 442.500000) scale(-1, 1) translate(-183.000000, -442.500000) translate(33.000000, 235.000000)">
            <g id="Humaaan" transform="translate(150.000000, 207.500000) scale(-1, 1) translate(-150.000000, -207.500000) ">
                <g id="Group" transform="translate(73.000000, 8.000000)">
                    <g id="Head/Front" transform="translate(60.520000, 46.140845) rotate(-8.000000) translate(-60.520000, -46.140845) ">
                        <g id="Head" transform="translate(48.060000, 27.507042)" fill="#B28B67">
                            <path d="M33.9475738,8.10475738 C39.1049554,17.6888514 38.4921244,41.9997005 31.8266682,43.7126454 C29.1684905,44.3957663 23.5057781,42.7223911 17.7424613,39.2590202 L21.36,64.7746479 L0,64.7746479 L7.35339366,30.6038801 C3.25237069,25.8045724 0.476716101,19.9229593 0.940530937,13.332445 C2.2769139,-5.6567084 28.7901923,-1.47933659 33.9475738,8.10475738 Z" id="Head-[skin]"></path>
                        </g>
                        <path d="M73.5705106,25.1733593 C70.6518076,24.2860353 66.4148763,23.9851154 64.6325252,24.1886852 C65.6464077,21.7668052 66.0487312,19.0685395 65.7207405,16.4413015 C65.4019476,13.888453 64.2577955,11.7147765 63.1996267,9.43702629 C62.7118648,8.38713248 62.1591044,7.34296095 61.3349714,6.53991164 C60.4954405,5.72176984 59.4327068,5.18173044 58.3183286,4.92408516 C57.1779238,4.66035996 55.9854655,4.68231918 54.8432892,4.92165319 C54.3380172,5.02751522 53.8846623,5.25783666 53.3891333,5.38587249 C52.881681,5.51705556 52.6355176,5.20039935 52.2671923,4.88216952 C51.3795597,4.1153851 50.0782936,3.73685683 48.9553306,3.60138205 C47.695421,3.44945573 46.3880911,3.63893445 45.186503,4.05186789 C44.0169374,4.45385748 42.8933613,5.10662562 42.0477665,6.05759566 C41.6712653,6.48090071 41.3295117,6.96271599 41.1073992,7.49467268 C41.0163058,7.71297734 41.0012485,7.84230068 40.7827469,7.92226943 C40.5806654,7.99630132 40.3443131,7.99844717 40.135759,8.06890264 C38.1191677,8.74985298 36.395002,10.3033067 35.4562017,12.297876 C34.9084831,13.4615 34.6490338,15.5102305 34.7200962,17.8065208 C34.7911586,20.1028111 36.8708407,26.0944878 38.8159607,28.2799664 C40.5521859,30.2306888 43.1042319,31.5179854 45.5671603,32.0814861 C43.9323847,33.9444432 42.8441695,36.2724064 42.0394543,38.6399963 C41.1653801,41.2117998 40.6244066,43.8840292 40.4246415,46.6067576 C40.234892,49.1936536 40.2173138,51.9293287 40.8256024,54.4610047 C41.3946466,56.8285231 42.6115645,58.7707337 44.6430767,60.0028818 C45.573633,60.5673124 46.5748428,60.9913328 47.5818438,61.3788736 C48.5742645,61.7607637 49.5696831,62.1320676 50.6092516,62.3463667 C52.5767191,62.7517897 54.843698,62.6821925 56.3592414,61.1208707 C56.9054611,60.5580137 57.506187,59.8507409 57.9046951,59.1631385 C58.0479781,58.9158648 58.1343704,58.7541391 57.9602914,58.5124446 C57.7517372,58.2229692 57.4144123,58.0011597 57.1465146,57.7747008 C55.6187754,56.4835417 54.6730937,54.7598504 54.4346974,52.7114201 C54.1928264,50.6330195 54.752809,47.950347 56.7796201,47.0432954 C59.2815204,45.9235899 62.0368062,47.2088121 64.2605208,48.4068412 C65.2055892,45.081343 67.1460762,42.0870928 70.188405,40.5616782 C73.5542278,38.8741088 77.4164653,38.6766189 80.8753574,37.2286695 C81.7766847,36.8513572 82.6947045,36.4230452 83.3583168,35.654258 C83.6356168,35.3329524 83.9609504,34.9161565 84.071666,34.4912063 C84.2171293,33.9329986 83.8560261,33.4649883 83.5770909,33.0298096 C82.0980665,30.722375 76.4892136,26.0606832 73.5705106,25.1733593 Z" id="hair" fill="#191847"></path>
                    </g>
                </g>
                <g id="Group" transform="translate(0.000000, 175.929577)">
                    <polygon id="leg-[skin]" fill="#B28B67" points="134 0 183.081639 124.226909 216.000898 229.25029 229 229.25029 178.673688 5.090379e-13"></polygon>
                    <path d="M124.116628,0 C123.593979,43.6541888 115.971833,102.427468 114.754071,105.148648 C113.942229,106.962768 85.9161573,130.032465 30.6758546,174.357739 L39.6290713,183.938736 C104.807511,145.935376 138.9048,124.399339 141.920937,119.330628 C146.445143,111.72756 161.1744,41.763137 173,0 L124.116628,0 Z" id="leg-[skin]" fill="#B28B67"></path>
                    <g transform="translate(21.000000, 169.000000)" fill="#E4E4E4" id="Left-[Shoe]">
                        <g transform="translate(30.500000, 20.000000) rotate(50.000000) translate(-30.500000, -20.000000) ">
                            <path d="M2.67813181,25.4019242 C1.55937727,28.3884109 1,30.6229931 1,32.1056708 C1,33.908957 1.3004142,36.5404001 1.90124261,40 C3.99318117,40 22.7937852,40 58.3030548,40 C59.768738,35.1545073 58.9226607,32.5385816 55.7648228,32.1522232 C52.606985,31.7658647 49.9837155,31.4170139 47.8950143,31.1056708 L21.6799926,19.4188835 C21.1755635,19.1940064 20.584344,19.4206282 20.359467,19.9250573 C20.35562,19.9336867 20.3518954,19.9423702 20.3482945,19.9511052 L18.6632131,24.038695 L18.6632131,24.038695 C15.7398812,25.4026522 13.3643706,26.0846307 11.5366811,26.0846307 C10.0517269,26.0846307 8.00099246,25.4849054 5.38447792,24.2854549 L5.38448339,24.285443 C4.38038273,23.8251478 3.19325534,24.2659892 2.73296014,25.2700899 C2.71312074,25.3133681 2.69483298,25.3573409 2.67813181,25.4019242 Z" id="shoe"></path>
                        </g>
                    </g>
                    <g transform="translate(208.000000, 199.000000)" fill="#E4E4E4" id="shoe">
                        <path d="M2.67813181,25.4019242 C1.55937727,28.3884109 1,30.6229931 1,32.1056708 C1,33.908957 1.3004142,36.5404001 1.90124261,40 C3.99318117,40 22.7937852,40 58.3030548,40 C59.768738,35.1545073 58.9226607,32.5385816 55.7648228,32.1522232 C52.606985,31.7658647 49.9837155,31.4170139 47.8950143,31.1056708 L21.6799926,19.4188835 C21.1755635,19.1940064 20.584344,19.4206282 20.359467,19.9250573 C20.35562,19.9336867 20.3518954,19.9423702 20.3482945,19.9511052 L18.6632131,24.038695 L18.6632131,24.038695 C15.7398812,25.4026522 13.3643706,26.0846307 11.5366811,26.0846307 C10.0517269,26.0846307 8.00099246,25.4849054 5.38447792,24.2854549 L5.38448339,24.285443 C4.38038273,23.8251478 3.19325534,24.2659892 2.73296014,25.2700899 C2.71312074,25.3133681 2.69483298,25.3573409 2.67813181,25.4019242 Z"></path>
                    </g>
                    <polygon id="Pant" fill="#242F6E" points="167 218.432889 228.804464 211.725327 183 2.84217094e-14 127.644073 2.84217094e-14"></polygon>
                    <path d="M43.4599581,158.900479 L84,206.885961 C126.699953,160.249961 151.594137,129.819963 158.682552,115.595966 C165.770967,101.37197 172.143091,62.839981 177.798925,0 L115.478146,0 C112.388642,55.2838742 110.306102,84.2121259 109.230525,86.7847551 C108.154948,89.3573843 86.2314253,113.395959 43.4599581,158.900479 Z" id="Pant" fill="#3F51B1"></path>
                </g>
                <g id="Group" transform="translate(23.000000, 80.000000)">
                    <g id="Body/Long-Sleeve-1" transform="translate(128.000000, 93.500000) rotate(-8.000000) translate(-128.000000, -93.500000) ">
                        <path d="M67.9697919,74.4496834 L89.8671837,74.5318631 C65.8560993,128.56567 53.3363474,156.856914 52.3079281,159.405597 C49.9939846,165.140133 54.8906002,173.873732 56.9845874,178.567103 C53.9432153,179.928026 52.4026446,178.434459 50.8661758,176.716619 L50.5865298,176.402399 C48.7647935,174.351515 46.8220933,172.210033 42.2879189,174.319492 C40.445928,175.176452 38.707333,176.196622 37.0078819,177.184033 L36.4724394,177.494529 C31.129527,180.584029 26.1095225,183.141118 19.3890352,178.994371 C18.2736052,178.306117 17.0512757,175.714714 20.0045784,173.68967 C27.3623323,168.644547 37.9653015,159.814672 39.3979297,156.908251 C41.3515741,152.944826 50.8755281,125.458637 67.9697919,74.4496834 L67.9697919,74.4496834 Z M253.693154,55.3151968 L253.442703,55.5243612 L253.442703,55.5243612 L252.942248,55.9447964 C252.85896,56.0150694 252.775756,56.0854314 252.692673,56.1558656 L252.195909,56.5792024 C248.320406,59.9000195 244.86953,63.3060227 245.568527,65.0514942 C246.356757,67.0197919 250.471061,66.2874533 251.152638,69.3148625 C251.607023,71.3331352 244.929759,71.6610844 231.120845,70.2987101 L199.083874,83 L192,65.3107899 L231.482876,59.9251648 C239.381053,55.5320264 246.646993,52.5579486 253.280695,51.0029313 L253.371849,51.0008757 L253.371849,51.0008757 L253.558465,51.0004267 C255.417568,51.0211463 257.90313,51.8055121 253.693154,55.3151968 Z" id="Arms-[skin]" fill="#997659"></path>
                        <path d="M123.473568,9.66927317 L140.652814,9.31280705 C148.188654,47.0006412 173.203746,69.0336905 223.790464,56.4079457 L234.893349,104.819132 C187.489073,115.210412 143.760505,99.6935282 130.595778,48.4746485 C127.187846,35.2156986 124.201379,21.3681777 123.473568,9.66927317 Z" id="Clothes-Back" fill="#AFB9C5" transform="translate(179.183459, 58.591470) rotate(5.000000) translate(-179.183459, -58.591470) "></path>
                        <path d="M119.477154,0 L119.490636,0.016 L145.467604,5.96527657 C145.467604,36.3470972 152.048676,59.2504701 158.555907,81.1264772 L159.129714,83.0542111 C159.320806,83.6960098 159.511665,84.3370838 159.702121,84.9775974 L160.272113,86.897621 C160.461595,87.5371778 160.650505,88.1763383 160.838675,88.8152666 L161.400789,90.7315191 C163.452481,97.7564277 165.394006,104.773101 167,112 L167,112 L96.8436466,112.000086 C95.8553764,123.350958 95.2484879,135.017596 94.9322404,147 L94.9322404,147 L42.4016357,147 C54.3053653,83.6639633 79.4301113,34.6639633 117.775873,0 L117.775873,0 L119.477154,0 Z" id="Clothes" fill="#C5CFD6"></path>
                        <path d="M107.912412,48.2598889 C106.10448,76.1008541 107.167824,97.3475578 111.102445,112 L111.102445,112 L96.8437337,111.999086 C98.758489,90.0075171 102.104834,69.2012293 107.54268,49.5802231 Z" id="Shade" fill-opacity="0.1" fill="#000000"></path>
                    </g>
                </g>
            </g>
        </g>
    </g>
</svg>