<svg id="Layer_1" data-name="Layer 1" xmlns="http://www.w3.org/2000/svg" viewBox="0 0 74 74"><defs><style>.cls-1{fill:#fff;}.cls-2{fill:#323232;}</style></defs><title>Artboard 1</title><path class="cls-1" d="M59.66,23.84a18.1,18.1,0,0,1-5.21,1.43,9.1,9.1,0,0,0,4-5,18.16,18.16,0,0,1-5.76,2.2,9.08,9.08,0,0,0-15.46,8.27,25.76,25.76,0,0,1-18.7-9.48,9.08,9.08,0,0,0,2.81,12.11,9,9,0,0,1-4.11-1.14s0,.08,0,.11a9.08,9.08,0,0,0,7.28,8.9,9.09,9.09,0,0,1-4.1.15,9.08,9.08,0,0,0,8.47,6.3,18.33,18.33,0,0,1-13.43,3.76,25.68,25.68,0,0,0,13.91,4.08c16.69,0,25.81-13.82,25.81-25.81,0-.39,0-.78,0-1.17a18.38,18.38,0,0,0,4.53-4.69"/><path class="cls-2" d="M32.22,56.13h8V36.75h5.34l.71-6.68H40.23V26.73C40.24,25,40.4,24,42.9,24h3.34V17.37H40.9c-6.42,0-8.68,3.24-8.68,8.69v4h-4v6.68h4Zm5,16.25A35.63,35.63,0,1,1,72.88,36.75,35.63,35.63,0,0,1,37.25,72.38Z"/></svg>