<?xml version="1.0" encoding="UTF-8"?>
<svg width="12px" height="18px" viewBox="0 0 12 18" version="1.1" xmlns="http://www.w3.org/2000/svg" xmlns:xlink="http://www.w3.org/1999/xlink">
    <!-- Generator: Sketch 52.5 (67469) - http://www.bohemiancoding.com/sketch -->
    <title>featured-marker</title>
    <desc>Created with Sketch.</desc>
    <defs>
        <polygon id="path-1" points="0 0 12 0 12 18 0 18"></polygon>
    </defs>
    <g id="featured-marker" stroke="none" stroke-width="1" fill="none" fill-rule="evenodd">
        <g id="Group-3">
            <mask id="mask-2" fill="white">
                <use xlink:href="#path-1"></use>
            </mask>
            <g id="Clip-2"></g>
            <path d="M4.00106326,6.35274251 C4.00106326,5.18756645 4.90164806,4.23516167 6.00106326,4.23516167 C7.10047847,4.23516167 8.00106326,5.18756645 8.00106326,6.35274251 C8.00106326,7.51791857 7.11111111,8.47032335 6.00106326,8.47032335 C4.90164806,8.47032335 4.00106326,7.51791857 4.00106326,6.35274251 M12,6.35274251 C12,2.84820814 9.31100478,0 6.00106326,0 C2.69112174,0 0,2.84820814 0,6.35274251 C0,11.1170179 6.00106326,18 6.00106326,18 C6.00106326,18 12,11.1170179 12,6.35274251" id="Fill-1" fill="#EC2024" mask="url(#mask-2)"></path>
        </g>
    </g>
</svg>