<svg id="Layer_1" data-name="Layer 1" xmlns="http://www.w3.org/2000/svg" viewBox="0 0 432 288"><defs><style>.cls-1{fill:none;stroke:#000;stroke-miterlimit:10;stroke-width:0.5px;}</style></defs><title>Artboard 3</title><line class="cls-1" x1="1" y1="288" x2="126"/><line class="cls-1" x1="14" y1="288" x2="139"/><line class="cls-1" x1="27" y1="288" x2="152"/><line class="cls-1" x1="40" y1="288" x2="165"/><line class="cls-1" x1="54" y1="288" x2="179"/><line class="cls-1" x1="67" y1="288" x2="192"/><line class="cls-1" x1="80" y1="288" x2="205"/><line class="cls-1" x1="93" y1="288" x2="218"/><line class="cls-1" x1="105" y1="288" x2="230"/><line class="cls-1" x1="118" y1="288" x2="243"/><line class="cls-1" x1="131" y1="288" x2="256"/><line class="cls-1" x1="144" y1="288" x2="269"/><line class="cls-1" x1="158" y1="288" x2="283"/><line class="cls-1" x1="171" y1="288" x2="296"/><line class="cls-1" x1="184" y1="288" x2="309"/><line class="cls-1" x1="197" y1="288" x2="322"/><line class="cls-1" x1="209" y1="288" x2="334"/><line class="cls-1" x1="222" y1="288" x2="347"/><line class="cls-1" x1="235" y1="288" x2="360"/><line class="cls-1" x1="248" y1="288" x2="373"/><line class="cls-1" x1="262" y1="288" x2="387"/><line class="cls-1" x1="275" y1="288" x2="400"/><line class="cls-1" x1="288" y1="288" x2="413"/><line class="cls-1" x1="301" y1="288" x2="426"/><line class="cls-1" x1="313" y1="288" x2="438"/><line class="cls-1" x1="326" y1="288" x2="451"/><line class="cls-1" x1="339" y1="288" x2="464"/><line class="cls-1" x1="352" y1="288" x2="477"/><line class="cls-1" x1="366" y1="288" x2="491"/><line class="cls-1" x1="379" y1="288" x2="504"/><line class="cls-1" x1="392" y1="288" x2="517"/><line class="cls-1" x1="405" y1="288" x2="530"/><line class="cls-1" x1="418" y1="288" x2="543"/><line class="cls-1" x1="431" y1="288" x2="556"/><line class="cls-1" x1="-118" y1="288" x2="7"/><line class="cls-1" x1="-106" y1="288" x2="19"/><line class="cls-1" x1="-93" y1="288" x2="32"/><line class="cls-1" x1="-80" y1="288" x2="45"/><line class="cls-1" x1="-67" y1="288" x2="58"/><line class="cls-1" x1="-53" y1="288" x2="72"/><line class="cls-1" x1="-40" y1="288" x2="85"/><line class="cls-1" x1="-27" y1="288" x2="98"/><line class="cls-1" x1="-14" y1="288" x2="111"/></svg>