<svg id="Layer_1" data-name="Layer 1" xmlns="http://www.w3.org/2000/svg" viewBox="0 0 432 288"><defs><style>.cls-1{fill:none;stroke:#000;stroke-miterlimit:10;stroke-width:0.5px;}</style></defs><title>Artboard 8 copy 2</title><line class="cls-1" x1="0.51" y1="12.19" x2="51.18" y2="12.19"/><line class="cls-1" x1="35.32" y1="25.5" x2="85.99" y2="25.5"/><line class="cls-1" x1="0.51" y1="38.81" x2="51.18" y2="38.81"/><line class="cls-1" x1="69.1" y1="12.19" x2="119.77" y2="12.19"/><line class="cls-1" x1="103.91" y1="25.5" x2="154.58" y2="25.5"/><line class="cls-1" x1="69.1" y1="38.81" x2="119.77" y2="38.81"/><line class="cls-1" y1="25.5" x2="16.38" y2="25.5"/><line class="cls-1" x1="138.71" y1="12.19" x2="189.38" y2="12.19"/><line class="cls-1" x1="173.52" y1="25.5" x2="224.19" y2="25.5"/><line class="cls-1" x1="138.71" y1="38.81" x2="189.38" y2="38.81"/><line class="cls-1" x1="207.3" y1="12.19" x2="257.97" y2="12.19"/><line class="cls-1" x1="242.1" y1="25.5" x2="292.78" y2="25.5"/><line class="cls-1" x1="207.3" y1="38.81" x2="257.97" y2="38.81"/><line class="cls-1" x1="276.91" y1="12.19" x2="327.58" y2="12.19"/><line class="cls-1" x1="276.91" y1="38.81" x2="327.58" y2="38.81"/><line class="cls-1" x1="311.72" y1="25.5" x2="362.39" y2="25.5"/><line class="cls-1" x1="346.52" y1="12.19" x2="397.19" y2="12.19"/><line class="cls-1" x1="346.52" y1="38.81" x2="397.19" y2="38.81"/><line class="cls-1" x1="381.33" y1="25.5" x2="432" y2="25.5"/><line class="cls-1" x1="415.62" y1="12.19" x2="432" y2="12.19"/><line class="cls-1" x1="415.62" y1="38.81" x2="432" y2="38.81"/><line class="cls-1" x1="431.49" y1="78.81" x2="380.82" y2="78.81"/><line class="cls-1" x1="396.68" y1="65.5" x2="346.01" y2="65.5"/><line class="cls-1" x1="431.49" y1="52.19" x2="380.82" y2="52.19"/><line class="cls-1" x1="362.9" y1="78.81" x2="312.23" y2="78.81"/><line class="cls-1" x1="328.09" y1="65.5" x2="277.42" y2="65.5"/><line class="cls-1" x1="362.9" y1="52.19" x2="312.23" y2="52.19"/><line class="cls-1" x1="432" y1="65.5" x2="415.62" y2="65.5"/><line class="cls-1" x1="293.29" y1="78.81" x2="242.62" y2="78.81"/><line class="cls-1" x1="258.48" y1="65.5" x2="207.81" y2="65.5"/><line class="cls-1" x1="293.29" y1="52.19" x2="242.62" y2="52.19"/><line class="cls-1" x1="224.7" y1="78.81" x2="174.03" y2="78.81"/><line class="cls-1" x1="189.9" y1="65.5" x2="139.22" y2="65.5"/><line class="cls-1" x1="224.7" y1="52.19" x2="174.03" y2="52.19"/><line class="cls-1" x1="155.09" y1="78.81" x2="104.42" y2="78.81"/><line class="cls-1" x1="155.09" y1="52.19" x2="104.42" y2="52.19"/><line class="cls-1" x1="120.28" y1="65.5" x2="69.61" y2="65.5"/><line class="cls-1" x1="85.48" y1="78.81" x2="34.81" y2="78.81"/><line class="cls-1" x1="85.48" y1="52.19" x2="34.81" y2="52.19"/><line class="cls-1" x1="50.67" y1="65.5" y2="65.5"/><line class="cls-1" x1="16.38" y1="78.81" y2="78.81"/><line class="cls-1" x1="16.38" y1="52.19" y2="52.19"/><line class="cls-1" x1="0.51" y1="92.19" x2="51.18" y2="92.19"/><line class="cls-1" x1="35.32" y1="105.5" x2="85.99" y2="105.5"/><line class="cls-1" x1="0.51" y1="118.81" x2="51.18" y2="118.81"/><line class="cls-1" x1="69.1" y1="92.19" x2="119.77" y2="92.19"/><line class="cls-1" x1="103.91" y1="105.5" x2="154.58" y2="105.5"/><line class="cls-1" x1="69.1" y1="118.81" x2="119.77" y2="118.81"/><line class="cls-1" y1="105.5" x2="16.38" y2="105.5"/><line class="cls-1" x1="138.71" y1="92.19" x2="189.38" y2="92.19"/><line class="cls-1" x1="173.52" y1="105.5" x2="224.19" y2="105.5"/><line class="cls-1" x1="138.71" y1="118.81" x2="189.38" y2="118.81"/><line class="cls-1" x1="207.3" y1="92.19" x2="257.97" y2="92.19"/><line class="cls-1" x1="242.1" y1="105.5" x2="292.78" y2="105.5"/><line class="cls-1" x1="207.3" y1="118.81" x2="257.97" y2="118.81"/><line class="cls-1" x1="276.91" y1="92.19" x2="327.58" y2="92.19"/><line class="cls-1" x1="276.91" y1="118.81" x2="327.58" y2="118.81"/><line class="cls-1" x1="311.72" y1="105.5" x2="362.39" y2="105.5"/><line class="cls-1" x1="346.52" y1="92.19" x2="397.19" y2="92.19"/><line class="cls-1" x1="346.52" y1="118.81" x2="397.19" y2="118.81"/><line class="cls-1" x1="381.33" y1="105.5" x2="432" y2="105.5"/><line class="cls-1" x1="415.62" y1="92.19" x2="432" y2="92.19"/><line class="cls-1" x1="415.62" y1="118.81" x2="432" y2="118.81"/><line class="cls-1" x1="431.49" y1="158.81" x2="380.82" y2="158.81"/><line class="cls-1" x1="396.68" y1="145.5" x2="346.01" y2="145.5"/><line class="cls-1" x1="431.49" y1="132.19" x2="380.82" y2="132.19"/><line class="cls-1" x1="362.9" y1="158.81" x2="312.23" y2="158.81"/><line class="cls-1" x1="328.09" y1="145.5" x2="277.42" y2="145.5"/><line class="cls-1" x1="362.9" y1="132.19" x2="312.23" y2="132.19"/><line class="cls-1" x1="432" y1="145.5" x2="415.62" y2="145.5"/><line class="cls-1" x1="293.29" y1="158.81" x2="242.62" y2="158.81"/><line class="cls-1" x1="258.48" y1="145.5" x2="207.81" y2="145.5"/><line class="cls-1" x1="293.29" y1="132.19" x2="242.62" y2="132.19"/><line class="cls-1" x1="224.7" y1="158.81" x2="174.03" y2="158.81"/><line class="cls-1" x1="189.9" y1="145.5" x2="139.22" y2="145.5"/><line class="cls-1" x1="224.7" y1="132.19" x2="174.03" y2="132.19"/><line class="cls-1" x1="155.09" y1="158.81" x2="104.42" y2="158.81"/><line class="cls-1" x1="155.09" y1="132.19" x2="104.42" y2="132.19"/><line class="cls-1" x1="120.28" y1="145.5" x2="69.61" y2="145.5"/><line class="cls-1" x1="85.48" y1="158.81" x2="34.81" y2="158.81"/><line class="cls-1" x1="85.48" y1="132.19" x2="34.81" y2="132.19"/><line class="cls-1" x1="50.67" y1="145.5" y2="145.5"/><line class="cls-1" x1="16.38" y1="158.81" y2="158.81"/><line class="cls-1" x1="16.38" y1="132.19" y2="132.19"/><line class="cls-1" x1="0.51" y1="172.19" x2="51.18" y2="172.19"/><line class="cls-1" x1="35.32" y1="185.5" x2="85.99" y2="185.5"/><line class="cls-1" x1="0.51" y1="198.81" x2="51.18" y2="198.81"/><line class="cls-1" x1="69.1" y1="172.19" x2="119.77" y2="172.19"/><line class="cls-1" x1="103.91" y1="185.5" x2="154.58" y2="185.5"/><line class="cls-1" x1="69.1" y1="198.81" x2="119.77" y2="198.81"/><line class="cls-1" y1="185.5" x2="16.38" y2="185.5"/><line class="cls-1" x1="138.71" y1="172.19" x2="189.38" y2="172.19"/><line class="cls-1" x1="173.52" y1="185.5" x2="224.19" y2="185.5"/><line class="cls-1" x1="138.71" y1="198.81" x2="189.38" y2="198.81"/><line class="cls-1" x1="207.3" y1="172.19" x2="257.97" y2="172.19"/><line class="cls-1" x1="242.1" y1="185.5" x2="292.78" y2="185.5"/><line class="cls-1" x1="207.3" y1="198.81" x2="257.97" y2="198.81"/><line class="cls-1" x1="276.91" y1="172.19" x2="327.58" y2="172.19"/><line class="cls-1" x1="276.91" y1="198.81" x2="327.58" y2="198.81"/><line class="cls-1" x1="311.72" y1="185.5" x2="362.39" y2="185.5"/><line class="cls-1" x1="346.52" y1="172.19" x2="397.19" y2="172.19"/><line class="cls-1" x1="346.52" y1="198.81" x2="397.19" y2="198.81"/><line class="cls-1" x1="381.33" y1="185.5" x2="432" y2="185.5"/><line class="cls-1" x1="415.62" y1="172.19" x2="432" y2="172.19"/><line class="cls-1" x1="415.62" y1="198.81" x2="432" y2="198.81"/><line class="cls-1" x1="431.49" y1="238.81" x2="380.82" y2="238.81"/><line class="cls-1" x1="396.68" y1="225.5" x2="346.01" y2="225.5"/><line class="cls-1" x1="431.49" y1="212.19" x2="380.82" y2="212.19"/><line class="cls-1" x1="362.9" y1="238.81" x2="312.23" y2="238.81"/><line class="cls-1" x1="328.09" y1="225.5" x2="277.42" y2="225.5"/><line class="cls-1" x1="362.9" y1="212.19" x2="312.23" y2="212.19"/><line class="cls-1" x1="432" y1="225.5" x2="415.62" y2="225.5"/><line class="cls-1" x1="293.29" y1="238.81" x2="242.62" y2="238.81"/><line class="cls-1" x1="258.48" y1="225.5" x2="207.81" y2="225.5"/><line class="cls-1" x1="293.29" y1="212.19" x2="242.62" y2="212.19"/><line class="cls-1" x1="224.7" y1="238.81" x2="174.03" y2="238.81"/><line class="cls-1" x1="189.9" y1="225.5" x2="139.22" y2="225.5"/><line class="cls-1" x1="224.7" y1="212.19" x2="174.03" y2="212.19"/><line class="cls-1" x1="155.09" y1="238.81" x2="104.42" y2="238.81"/><line class="cls-1" x1="155.09" y1="212.19" x2="104.42" y2="212.19"/><line class="cls-1" x1="120.28" y1="225.5" x2="69.61" y2="225.5"/><line class="cls-1" x1="85.48" y1="238.81" x2="34.81" y2="238.81"/><line class="cls-1" x1="85.48" y1="212.19" x2="34.81" y2="212.19"/><line class="cls-1" x1="50.67" y1="225.5" y2="225.5"/><line class="cls-1" x1="16.38" y1="238.81" y2="238.81"/><line class="cls-1" x1="16.38" y1="212.19" y2="212.19"/><line class="cls-1" x1="0.51" y1="252.19" x2="51.18" y2="252.19"/><line class="cls-1" x1="35.32" y1="265.5" x2="85.99" y2="265.5"/><line class="cls-1" x1="0.51" y1="278.81" x2="51.18" y2="278.81"/><line class="cls-1" x1="69.1" y1="252.19" x2="119.77" y2="252.19"/><line class="cls-1" x1="103.91" y1="265.5" x2="154.58" y2="265.5"/><line class="cls-1" x1="69.1" y1="278.81" x2="119.77" y2="278.81"/><line class="cls-1" y1="265.5" x2="16.38" y2="265.5"/><line class="cls-1" x1="138.71" y1="252.19" x2="189.38" y2="252.19"/><line class="cls-1" x1="173.52" y1="265.5" x2="224.19" y2="265.5"/><line class="cls-1" x1="138.71" y1="278.81" x2="189.38" y2="278.81"/><line class="cls-1" x1="207.3" y1="252.19" x2="257.97" y2="252.19"/><line class="cls-1" x1="242.1" y1="265.5" x2="292.78" y2="265.5"/><line class="cls-1" x1="207.3" y1="278.81" x2="257.97" y2="278.81"/><line class="cls-1" x1="276.91" y1="252.19" x2="327.58" y2="252.19"/><line class="cls-1" x1="276.91" y1="278.81" x2="327.58" y2="278.81"/><line class="cls-1" x1="311.72" y1="265.5" x2="362.39" y2="265.5"/><line class="cls-1" x1="346.52" y1="252.19" x2="397.19" y2="252.19"/><line class="cls-1" x1="346.52" y1="278.81" x2="397.19" y2="278.81"/><line class="cls-1" x1="381.33" y1="265.5" x2="432" y2="265.5"/><line class="cls-1" x1="415.62" y1="252.19" x2="432" y2="252.19"/><line class="cls-1" x1="415.62" y1="278.81" x2="432" y2="278.81"/></svg>