<svg id="Layer_1" data-name="Layer 1" xmlns="http://www.w3.org/2000/svg" viewBox="0 0 432 288"><defs><style>.cls-1{fill:none;stroke:#000;stroke-miterlimit:10;stroke-width:0.5px;}</style></defs><title>Artboard 3 copy</title><line class="cls-1" x1="424" y1="288" x2="299"/><line class="cls-1" x1="411" y1="288" x2="286"/><line class="cls-1" x1="398" y1="288" x2="273"/><line class="cls-1" x1="385" y1="288" x2="260"/><line class="cls-1" x1="371" y1="288" x2="246"/><line class="cls-1" x1="358" y1="288" x2="233"/><line class="cls-1" x1="345" y1="288" x2="220"/><line class="cls-1" x1="332" y1="288" x2="207"/><line class="cls-1" x1="320" y1="288" x2="195"/><line class="cls-1" x1="307" y1="288" x2="182"/><line class="cls-1" x1="294" y1="288" x2="169"/><line class="cls-1" x1="281" y1="288" x2="156"/><line class="cls-1" x1="267" y1="288" x2="142"/><line class="cls-1" x1="254" y1="288" x2="129"/><line class="cls-1" x1="241" y1="288" x2="116"/><line class="cls-1" x1="228" y1="288" x2="103"/><line class="cls-1" x1="216" y1="288" x2="91"/><line class="cls-1" x1="203" y1="288" x2="78"/><line class="cls-1" x1="190" y1="288" x2="65"/><line class="cls-1" x1="177" y1="288" x2="52"/><line class="cls-1" x1="163" y1="288" x2="38"/><line class="cls-1" x1="150" y1="288" x2="25"/><line class="cls-1" x1="137" y1="288" x2="12"/><line class="cls-1" x1="124" y1="288" x2="-1"/><line class="cls-1" x1="112" y1="288" x2="-13"/><line class="cls-1" x1="99" y1="288" x2="-26"/><line class="cls-1" x1="86" y1="288" x2="-39"/><line class="cls-1" x1="73" y1="288" x2="-52"/><line class="cls-1" x1="59" y1="288" x2="-66"/><line class="cls-1" x1="46" y1="288" x2="-79"/><line class="cls-1" x1="33" y1="288" x2="-92"/><line class="cls-1" x1="20" y1="288" x2="-105"/><line class="cls-1" x1="7" y1="288" x2="-118"/><line class="cls-1" x1="543" y1="288" x2="418"/><line class="cls-1" x1="531" y1="288" x2="406"/><line class="cls-1" x1="518" y1="288" x2="393"/><line class="cls-1" x1="505" y1="288" x2="380"/><line class="cls-1" x1="492" y1="288" x2="367"/><line class="cls-1" x1="478" y1="288" x2="353"/><line class="cls-1" x1="465" y1="288" x2="340"/><line class="cls-1" x1="452" y1="288" x2="327"/><line class="cls-1" x1="439" y1="288" x2="314"/></svg>