<svg id="Layer_1" data-name="Layer 1" xmlns="http://www.w3.org/2000/svg" viewBox="0 0 432 288"><defs><style>.cls-1{fill:none;stroke:#000;stroke-miterlimit:10;stroke-width:0.5px;}</style></defs><title>Artboard 6</title><line class="cls-1" x1="16.23" y1="46.01" x2="36.2"/><line class="cls-1" x1="-0.15" y1="46.01" x2="19.82"/><line class="cls-1" x1="32.6" y1="46.01" x2="52.57"/><line class="cls-1" x1="52.84" y1="68.54" x2="72.81" y2="22.53"/><line class="cls-1" x1="36.47" y1="68.54" x2="56.44" y2="22.53"/><line class="cls-1" x1="69.22" y1="68.54" x2="89.19" y2="22.53"/><line class="cls-1" x1="109.18" y1="46.01" x2="129.14"/><line class="cls-1" x1="92.8" y1="46.01" x2="112.77"/><line class="cls-1" x1="125.55" y1="46.01" x2="145.52"/><line class="cls-1" x1="145.79" y1="68.54" x2="165.76" y2="22.53"/><line class="cls-1" x1="129.42" y1="68.54" x2="149.39" y2="22.53"/><line class="cls-1" x1="162.17" y1="68.54" x2="182.13" y2="22.53"/><line class="cls-1" x1="204" y1="46.01" x2="223.97"/><line class="cls-1" x1="187.63" y1="46.01" x2="207.6"/><line class="cls-1" x1="220.38" y1="46.01" x2="240.35"/><line class="cls-1" x1="240.62" y1="68.54" x2="260.59" y2="22.53"/><line class="cls-1" x1="224.25" y1="68.54" x2="244.22" y2="22.53"/><line class="cls-1" x1="256.99" y1="68.54" x2="276.96" y2="22.53"/><line class="cls-1" x1="296.95" y1="46.01" x2="316.92"/><line class="cls-1" x1="280.58" y1="46.01" x2="300.55"/><line class="cls-1" x1="313.33" y1="46.01" x2="333.29"/><line class="cls-1" x1="333.57" y1="68.54" x2="353.54" y2="22.53"/><line class="cls-1" x1="317.2" y1="68.54" x2="337.16" y2="22.53"/><line class="cls-1" x1="349.94" y1="68.54" x2="369.91" y2="22.53"/><line class="cls-1" x1="393.66" y1="46.01" x2="413.63"/><line class="cls-1" x1="377.29" y1="46.01" x2="397.25"/><line class="cls-1" x1="410.03" y1="46.01" x2="430"/><line class="cls-1" x1="13.23" y1="119.01" x2="33.2" y2="73"/><line class="cls-1" x1="-3.15" y1="119.01" x2="16.82" y2="73"/><line class="cls-1" x1="29.6" y1="119.01" x2="49.57" y2="73"/><line class="cls-1" x1="49.84" y1="141.54" x2="69.81" y2="95.53"/><line class="cls-1" x1="33.47" y1="141.54" x2="53.44" y2="95.53"/><line class="cls-1" x1="66.22" y1="141.54" x2="86.19" y2="95.53"/><line class="cls-1" x1="106.18" y1="119.01" x2="126.14" y2="73"/><line class="cls-1" x1="89.8" y1="119.01" x2="109.77" y2="73"/><line class="cls-1" x1="122.55" y1="119.01" x2="142.52" y2="73"/><line class="cls-1" x1="142.79" y1="141.54" x2="162.76" y2="95.53"/><line class="cls-1" x1="126.42" y1="141.54" x2="146.39" y2="95.53"/><line class="cls-1" x1="159.17" y1="141.54" x2="179.13" y2="95.53"/><line class="cls-1" x1="201" y1="119.01" x2="220.97" y2="73"/><line class="cls-1" x1="184.63" y1="119.01" x2="204.6" y2="73"/><line class="cls-1" x1="217.38" y1="119.01" x2="237.35" y2="73"/><line class="cls-1" x1="237.62" y1="141.54" x2="257.59" y2="95.53"/><line class="cls-1" x1="221.25" y1="141.54" x2="241.22" y2="95.53"/><line class="cls-1" x1="253.99" y1="141.54" x2="273.96" y2="95.53"/><line class="cls-1" x1="293.95" y1="119.01" x2="313.92" y2="73"/><line class="cls-1" x1="277.58" y1="119.01" x2="297.55" y2="73"/><line class="cls-1" x1="310.33" y1="119.01" x2="330.29" y2="73"/><line class="cls-1" x1="330.57" y1="141.54" x2="350.54" y2="95.53"/><line class="cls-1" x1="314.2" y1="141.54" x2="334.16" y2="95.53"/><line class="cls-1" x1="346.94" y1="141.54" x2="366.91" y2="95.53"/><line class="cls-1" x1="390.66" y1="119.01" x2="410.63" y2="73"/><line class="cls-1" x1="374.29" y1="119.01" x2="394.25" y2="73"/><line class="cls-1" x1="407.03" y1="119.01" x2="427" y2="73"/><line class="cls-1" x1="16.23" y1="192.01" x2="36.2" y2="146"/><line class="cls-1" x1="-0.15" y1="192.01" x2="19.82" y2="146"/><line class="cls-1" x1="32.6" y1="192.01" x2="52.57" y2="146"/><line class="cls-1" x1="52.84" y1="214.54" x2="72.81" y2="168.53"/><line class="cls-1" x1="36.47" y1="214.54" x2="56.44" y2="168.53"/><line class="cls-1" x1="69.22" y1="214.54" x2="89.19" y2="168.53"/><line class="cls-1" x1="109.18" y1="192.01" x2="129.14" y2="146"/><line class="cls-1" x1="92.8" y1="192.01" x2="112.77" y2="146"/><line class="cls-1" x1="125.55" y1="192.01" x2="145.52" y2="146"/><line class="cls-1" x1="145.79" y1="214.54" x2="165.76" y2="168.53"/><line class="cls-1" x1="129.42" y1="214.54" x2="149.39" y2="168.53"/><line class="cls-1" x1="162.17" y1="214.54" x2="182.13" y2="168.53"/><line class="cls-1" x1="204" y1="192.01" x2="223.97" y2="146"/><line class="cls-1" x1="187.63" y1="192.01" x2="207.6" y2="146"/><line class="cls-1" x1="220.38" y1="192.01" x2="240.35" y2="146"/><line class="cls-1" x1="240.62" y1="214.54" x2="260.59" y2="168.53"/><line class="cls-1" x1="224.25" y1="214.54" x2="244.22" y2="168.53"/><line class="cls-1" x1="256.99" y1="214.54" x2="276.96" y2="168.53"/><line class="cls-1" x1="296.95" y1="192.01" x2="316.92" y2="146"/><line class="cls-1" x1="280.58" y1="192.01" x2="300.55" y2="146"/><line class="cls-1" x1="313.33" y1="192.01" x2="333.29" y2="146"/><line class="cls-1" x1="333.57" y1="214.54" x2="353.54" y2="168.53"/><line class="cls-1" x1="317.2" y1="214.54" x2="337.16" y2="168.53"/><line class="cls-1" x1="349.94" y1="214.54" x2="369.91" y2="168.53"/><line class="cls-1" x1="393.66" y1="192.01" x2="413.63" y2="146"/><line class="cls-1" x1="377.29" y1="192.01" x2="397.25" y2="146"/><line class="cls-1" x1="410.03" y1="192.01" x2="430" y2="146"/><line class="cls-1" x1="17.23" y1="265.01" x2="37.2" y2="219"/><line class="cls-1" x1="0.85" y1="265.01" x2="20.82" y2="219"/><line class="cls-1" x1="33.6" y1="265.01" x2="53.57" y2="219"/><line class="cls-1" x1="53.84" y1="287.54" x2="73.81" y2="241.53"/><line class="cls-1" x1="37.47" y1="287.54" x2="57.44" y2="241.53"/><line class="cls-1" x1="70.22" y1="287.54" x2="90.19" y2="241.53"/><line class="cls-1" x1="110.18" y1="265.01" x2="130.14" y2="219"/><line class="cls-1" x1="93.8" y1="265.01" x2="113.77" y2="219"/><line class="cls-1" x1="126.55" y1="265.01" x2="146.52" y2="219"/><line class="cls-1" x1="146.79" y1="287.54" x2="166.76" y2="241.53"/><line class="cls-1" x1="130.42" y1="287.54" x2="150.39" y2="241.53"/><line class="cls-1" x1="163.17" y1="287.54" x2="183.13" y2="241.53"/><line class="cls-1" x1="205" y1="265.01" x2="224.97" y2="219"/><line class="cls-1" x1="188.63" y1="265.01" x2="208.6" y2="219"/><line class="cls-1" x1="221.38" y1="265.01" x2="241.35" y2="219"/><line class="cls-1" x1="241.62" y1="287.54" x2="261.59" y2="241.53"/><line class="cls-1" x1="225.25" y1="287.54" x2="245.22" y2="241.53"/><line class="cls-1" x1="257.99" y1="287.54" x2="277.96" y2="241.53"/><line class="cls-1" x1="297.95" y1="265.01" x2="317.92" y2="219"/><line class="cls-1" x1="281.58" y1="265.01" x2="301.55" y2="219"/><line class="cls-1" x1="314.33" y1="265.01" x2="334.29" y2="219"/><line class="cls-1" x1="334.57" y1="287.54" x2="354.54" y2="241.53"/><line class="cls-1" x1="318.2" y1="287.54" x2="338.16" y2="241.53"/><line class="cls-1" x1="350.94" y1="287.54" x2="370.91" y2="241.53"/><line class="cls-1" x1="394.66" y1="265.01" x2="414.63" y2="219"/><line class="cls-1" x1="378.29" y1="265.01" x2="398.25" y2="219"/><line class="cls-1" x1="411.03" y1="265.01" x2="431" y2="219"/></svg>