<svg id="Layer_1" data-name="Layer 1" xmlns="http://www.w3.org/2000/svg" viewBox="0 0 432 288"><defs><style>.cls-1{fill:none;stroke:#000;stroke-miterlimit:10;stroke-width:0.5px;}</style></defs><title>Artboard 8 copy 3</title><line class="cls-1" x1="1.16" y1="24.03" x2="21.22" y2="-22.5"/><line class="cls-1" x1="-0.4" y1="61.26" x2="19.66" y2="14.73"/><line class="cls-1" x1="71.93" y1="-39.1" x2="51.87" y2="7.43"/><line class="cls-1" x1="70.38" y1="-1.87" x2="50.31" y2="44.66"/><line class="cls-1" x1="44.37" y1="24.82" x2="24.31" y2="71.36"/><line class="cls-1" x1="45.93" y1="-12.41" x2="25.87" y2="34.13"/><line class="cls-1" x1="43.22" y1="61.11" x2="23.16" y2="107.65"/><line class="cls-1" x1="17.22" y1="87.81" x2="-2.84" y2="134.34"/><line class="cls-1" x1="18.78" y1="50.58" x2="-1.28" y2="97.11"/><line class="cls-1" x1="15.66" y1="125.04" x2="-4.4" y2="171.57"/><line class="cls-1" x1="-7.25" y1="245.59" x2="12.81" y2="199.06"/><line class="cls-1" x1="-8.81" y1="282.82" x2="11.26" y2="236.29"/><line class="cls-1" x1="-6.09" y1="209.3" x2="13.97" y2="162.77"/><line class="cls-1" x1="19.91" y1="182.61" x2="39.97" y2="136.08"/><line class="cls-1" x1="18.35" y1="219.84" x2="38.41" y2="173.31"/><line class="cls-1" x1="21.47" y1="145.38" x2="41.53" y2="98.84"/><line class="cls-1" x1="47.47" y1="118.68" x2="67.53" y2="72.15"/><line class="cls-1" x1="45.91" y1="155.91" x2="65.97" y2="109.38"/><line class="cls-1" x1="48.62" y1="82.39" x2="68.68" y2="35.86"/><line class="cls-1" x1="74.62" y1="55.7" x2="94.68" y2="9.17"/><line class="cls-1" x1="73.06" y1="92.93" x2="93.12" y2="46.4"/><line class="cls-1" x1="76.18" y1="18.47" x2="96.24" y2="-28.06"/><line class="cls-1" x1="100.62" y1="29.01" x2="120.68" y2="-17.52"/><line class="cls-1" x1="171.4" y1="-34.12" x2="151.34" y2="12.41"/><line class="cls-1" x1="145.4" y1="-7.43" x2="125.34" y2="39.11"/><line class="cls-1" x1="143.84" y1="29.8" x2="123.78" y2="76.34"/><line class="cls-1" x1="117.84" y1="56.5" x2="97.78" y2="103.03"/><line class="cls-1" x1="119.4" y1="19.27" x2="99.34" y2="65.8"/><line class="cls-1" x1="116.68" y1="92.79" x2="96.62" y2="139.32"/><line class="cls-1" x1="90.68" y1="119.48" x2="70.62" y2="166.01"/><line class="cls-1" x1="92.24" y1="82.25" x2="72.18" y2="128.78"/><line class="cls-1" x1="89.12" y1="156.71" x2="69.06" y2="203.24"/><line class="cls-1" x1="64.68" y1="146.17" x2="44.62" y2="192.71"/><line class="cls-1" x1="63.12" y1="183.4" x2="43.06" y2="229.94"/><line class="cls-1" x1="61.56" y1="220.63" x2="41.5" y2="267.17"/><line class="cls-1" x1="37.12" y1="210.1" x2="17.06" y2="256.63"/><line class="cls-1" x1="35.56" y1="247.33" x2="15.5" y2="293.86"/><line class="cls-1" x1="34.21" y1="284.09" x2="27.72" y2="299.13"/><line class="cls-1" x1="9.77" y1="273.55" x2="3.28" y2="288.59"/><line class="cls-1" x1="40.21" y1="303.96" x2="60.28" y2="257.42"/><line class="cls-1" x1="66.22" y1="277.26" x2="86.28" y2="230.73"/><line class="cls-1" x1="64.66" y1="314.49" x2="84.72" y2="267.96"/><line class="cls-1" x1="67.37" y1="240.97" x2="87.43" y2="194.44"/><line class="cls-1" x1="93.37" y1="214.28" x2="113.43" y2="167.75"/><line class="cls-1" x1="91.81" y1="251.51" x2="111.87" y2="204.98"/><line class="cls-1" x1="94.93" y1="177.05" x2="114.99" y2="130.52"/><line class="cls-1" x1="120.93" y1="150.36" x2="140.99" y2="103.82"/><line class="cls-1" x1="119.37" y1="187.59" x2="139.43" y2="141.06"/><line class="cls-1" x1="122.08" y1="114.07" x2="142.15" y2="67.53"/><line class="cls-1" x1="148.08" y1="87.37" x2="168.15" y2="40.84"/><line class="cls-1" x1="146.53" y1="124.6" x2="166.59" y2="78.07"/><line class="cls-1" x1="149.64" y1="50.14" x2="169.71" y2="3.61"/><line class="cls-1" x1="174.09" y1="60.68" x2="194.15" y2="14.15"/><line class="cls-1" x1="175.64" y1="23.45" x2="195.71" y2="-23.08"/><line class="cls-1" x1="246.02" y1="-38.74" x2="225.95" y2="7.8"/><line class="cls-1" x1="244.86" y1="-2.45" x2="224.8" y2="44.09"/><line class="cls-1" x1="218.86" y1="24.25" x2="198.8" y2="70.78"/><line class="cls-1" x1="220.42" y1="-12.98" x2="200.36" y2="33.55"/><line class="cls-1" x1="217.3" y1="61.48" x2="197.24" y2="108.01"/><line class="cls-1" x1="191.3" y1="88.17" x2="171.24" y2="134.7"/><line class="cls-1" x1="192.86" y1="50.94" x2="172.8" y2="97.47"/><line class="cls-1" x1="190.15" y1="124.46" x2="170.08" y2="170.99"/><line class="cls-1" x1="164.15" y1="151.15" x2="144.08" y2="197.69"/><line class="cls-1" x1="165.71" y1="113.92" x2="145.64" y2="160.45"/><line class="cls-1" x1="162.59" y1="188.38" x2="142.52" y2="234.92"/><line class="cls-1" x1="138.15" y1="177.85" x2="118.08" y2="224.38"/><line class="cls-1" x1="136.59" y1="215.08" x2="116.52" y2="261.61"/><line class="cls-1" x1="135.03" y1="252.31" x2="114.96" y2="298.84"/><line class="cls-1" x1="110.59" y1="241.77" x2="90.52" y2="288.3"/><line class="cls-1" x1="109.03" y1="279" x2="88.96" y2="325.53"/><line class="cls-1" x1="139.68" y1="308.94" x2="159.74" y2="262.4"/><line class="cls-1" x1="140.83" y1="272.65" x2="160.89" y2="226.11"/><line class="cls-1" x1="166.83" y1="245.95" x2="186.9" y2="199.42"/><line class="cls-1" x1="165.27" y1="283.18" x2="185.34" y2="236.65"/><line class="cls-1" x1="168.39" y1="208.72" x2="188.45" y2="162.19"/><line class="cls-1" x1="194.39" y1="182.03" x2="214.46" y2="135.5"/><line class="cls-1" x1="192.83" y1="219.26" x2="212.9" y2="172.73"/><line class="cls-1" x1="195.55" y1="145.74" x2="215.61" y2="99.21"/><line class="cls-1" x1="221.55" y1="119.05" x2="241.61" y2="72.51"/><line class="cls-1" x1="219.99" y1="156.28" x2="240.05" y2="109.74"/><line class="cls-1" x1="223.11" y1="81.82" x2="243.17" y2="35.28"/><line class="cls-1" x1="247.55" y1="92.35" x2="267.61" y2="45.82"/><line class="cls-1" x1="249.11" y1="55.12" x2="269.17" y2="8.59"/><line class="cls-1" x1="250.67" y1="17.89" x2="270.73" y2="-28.64"/><line class="cls-1" x1="275.11" y1="28.43" x2="295.17" y2="-18.1"/><line class="cls-1" x1="163.29" y1="323.61" x2="183.35" y2="277.08"/><line class="cls-1" x1="189.29" y1="296.92" x2="209.35" y2="250.39"/><line class="cls-1" x1="190.44" y1="260.63" x2="210.51" y2="214.1"/><line class="cls-1" x1="216.44" y1="233.93" x2="236.51" y2="187.4"/><line class="cls-1" x1="214.88" y1="271.17" x2="234.95" y2="224.63"/><line class="cls-1" x1="218" y1="196.7" x2="238.07" y2="150.17"/><line class="cls-1" x1="244" y1="170.01" x2="264.07" y2="123.48"/><line class="cls-1" x1="242.44" y1="207.24" x2="262.51" y2="160.71"/><line class="cls-1" x1="245.16" y1="133.72" x2="265.22" y2="87.19"/><line class="cls-1" x1="271.16" y1="107.03" x2="291.22" y2="60.5"/><line class="cls-1" x1="269.6" y1="144.26" x2="289.66" y2="97.73"/><line class="cls-1" x1="272.72" y1="69.8" x2="292.78" y2="23.27"/><line class="cls-1" x1="297.16" y1="80.34" x2="317.22" y2="33.8"/><line class="cls-1" x1="298.72" y1="43.1" x2="318.78" y2="-3.43"/><line class="cls-1" x1="300.28" y1="5.87" x2="320.34" y2="-40.66"/><line class="cls-1" x1="324.72" y1="16.41" x2="344.78" y2="-30.12"/><line class="cls-1" x1="369.09" y1="-19.08" x2="349.03" y2="27.45"/><line class="cls-1" x1="367.94" y1="17.21" x2="347.87" y2="63.74"/><line class="cls-1" x1="341.93" y1="43.9" x2="321.87" y2="90.43"/><line class="cls-1" x1="343.49" y1="6.67" x2="323.43" y2="53.2"/><line class="cls-1" x1="340.38" y1="81.13" x2="320.31" y2="127.66"/><line class="cls-1" x1="314.37" y1="107.82" x2="294.31" y2="154.36"/><line class="cls-1" x1="315.93" y1="70.59" x2="295.87" y2="117.13"/><line class="cls-1" x1="313.22" y1="144.11" x2="293.16" y2="190.65"/><line class="cls-1" x1="287.22" y1="170.81" x2="267.16" y2="217.34"/><line class="cls-1" x1="288.78" y1="133.58" x2="268.72" y2="180.11"/><line class="cls-1" x1="285.66" y1="208.04" x2="265.6" y2="254.57"/><line class="cls-1" x1="261.22" y1="197.5" x2="241.16" y2="244.03"/><line class="cls-1" x1="259.66" y1="234.73" x2="239.6" y2="281.26"/><line class="cls-1" x1="258.1" y1="271.96" x2="238.04" y2="318.49"/><line class="cls-1" x1="233.66" y1="261.42" x2="213.6" y2="307.96"/><line class="cls-1" x1="262.75" y1="328.59" x2="282.81" y2="282.06"/><line class="cls-1" x1="263.91" y1="292.3" x2="283.97" y2="245.77"/><line class="cls-1" x1="289.91" y1="265.61" x2="309.97" y2="219.08"/><line class="cls-1" x1="288.35" y1="302.84" x2="308.41" y2="256.31"/><line class="cls-1" x1="291.47" y1="228.38" x2="311.53" y2="181.84"/><line class="cls-1" x1="317.47" y1="201.68" x2="337.53" y2="155.15"/><line class="cls-1" x1="315.91" y1="238.91" x2="335.97" y2="192.38"/><line class="cls-1" x1="318.62" y1="165.39" x2="338.68" y2="118.86"/><line class="cls-1" x1="344.62" y1="138.7" x2="364.68" y2="92.17"/><line class="cls-1" x1="343.06" y1="175.93" x2="363.12" y2="129.4"/><line class="cls-1" x1="346.18" y1="101.47" x2="366.24" y2="54.94"/><line class="cls-1" x1="370.62" y1="112.01" x2="390.68" y2="65.48"/><line class="cls-1" x1="372.18" y1="74.78" x2="392.24" y2="28.25"/><line class="cls-1" x1="373.74" y1="37.55" x2="393.8" y2="-8.99"/><line class="cls-1" x1="398.18" y1="48.08" x2="418.24" y2="1.55"/><line class="cls-1" x1="399.74" y1="10.85" x2="419.8" y2="-35.68"/><line class="cls-1" x1="442.55" y1="12.59" x2="422.49" y2="59.12"/><line class="cls-1" x1="444.11" y1="-24.64" x2="424.05" y2="21.89"/><line class="cls-1" x1="441.4" y1="48.88" x2="421.34" y2="95.41"/><line class="cls-1" x1="415.4" y1="75.57" x2="395.34" y2="122.11"/><line class="cls-1" x1="416.96" y1="38.34" x2="396.9" y2="84.88"/><line class="cls-1" x1="413.84" y1="112.8" x2="393.78" y2="159.34"/><line class="cls-1" x1="387.84" y1="139.5" x2="367.78" y2="186.03"/><line class="cls-1" x1="389.4" y1="102.27" x2="369.34" y2="148.8"/><line class="cls-1" x1="386.68" y1="175.79" x2="366.62" y2="222.32"/><line class="cls-1" x1="360.68" y1="202.48" x2="340.62" y2="249.01"/><line class="cls-1" x1="362.24" y1="165.25" x2="342.18" y2="211.78"/><line class="cls-1" x1="359.12" y1="239.71" x2="339.06" y2="286.24"/><line class="cls-1" x1="334.68" y1="229.17" x2="314.62" y2="275.71"/><line class="cls-1" x1="333.12" y1="266.4" x2="313.06" y2="312.94"/><line class="cls-1" x1="337.37" y1="323.97" x2="357.43" y2="277.44"/><line class="cls-1" x1="363.37" y1="297.28" x2="383.43" y2="250.75"/><line class="cls-1" x1="364.93" y1="260.05" x2="384.99" y2="213.52"/><line class="cls-1" x1="390.93" y1="233.36" x2="410.99" y2="186.82"/><line class="cls-1" x1="389.37" y1="270.59" x2="409.43" y2="224.06"/><line class="cls-1" x1="392.08" y1="197.07" x2="412.15" y2="150.53"/><line class="cls-1" x1="418.08" y1="170.37" x2="438.15" y2="123.84"/><line class="cls-1" x1="416.53" y1="207.6" x2="436.59" y2="161.07"/><line class="cls-1" x1="419.64" y1="133.14" x2="439.71" y2="86.61"/><line class="cls-1" x1="434.15" y1="234.15" x2="414.08" y2="280.69"/><line class="cls-1" x1="435.71" y1="196.92" x2="415.64" y2="243.45"/><line class="cls-1" x1="432.59" y1="271.38" x2="412.52" y2="317.92"/><line class="cls-1" x1="408.15" y1="260.85" x2="388.08" y2="307.38"/></svg>