<svg id="Layer_1" data-name="Layer 1" xmlns="http://www.w3.org/2000/svg" viewBox="0 0 432 288"><defs><style>.cls-1{fill:none;stroke:#000;stroke-miterlimit:10;stroke-width:0.5px;}</style></defs><title>Artboard 9 copy 2</title><line class="cls-1" x1="16.62" y1="44.29" x2="35.84"/><line class="cls-1" x1="0.85" y1="44.29" x2="20.08"/><line class="cls-1" x1="32.38" y1="44.29" x2="51.61"/><line class="cls-1" x1="111.47" y1="44.29" x2="130.69"/><line class="cls-1" x1="95.7" y1="44.29" x2="114.93"/><line class="cls-1" x1="127.23" y1="44.29" x2="146.46"/><line class="cls-1" x1="206.31" y1="44.29" x2="225.54"/><line class="cls-1" x1="190.55" y1="44.29" x2="209.78"/><line class="cls-1" x1="222.08" y1="44.29" x2="241.3"/><line class="cls-1" x1="301.16" y1="44.29" x2="320.39"/><line class="cls-1" x1="285.4" y1="44.29" x2="304.62"/><line class="cls-1" x1="316.93" y1="44.29" x2="336.15"/><line class="cls-1" x1="396.01" y1="44.29" x2="415.24"/><line class="cls-1" x1="380.25" y1="44.29" x2="399.47"/><line class="cls-1" x1="411.78" y1="44.29" x2="431"/><line class="cls-1" x1="16.62" y1="61.63" x2="35.84" y2="105.92"/><line class="cls-1" x1="0.85" y1="61.63" x2="20.08" y2="105.92"/><line class="cls-1" x1="32.38" y1="61.63" x2="51.61" y2="105.92"/><line class="cls-1" x1="111.47" y1="61.63" x2="130.69" y2="105.92"/><line class="cls-1" x1="95.7" y1="61.63" x2="114.93" y2="105.92"/><line class="cls-1" x1="127.23" y1="61.63" x2="146.46" y2="105.92"/><line class="cls-1" x1="206.31" y1="61.63" x2="225.54" y2="105.92"/><line class="cls-1" x1="190.55" y1="61.63" x2="209.78" y2="105.92"/><line class="cls-1" x1="222.08" y1="61.63" x2="241.3" y2="105.92"/><line class="cls-1" x1="301.16" y1="61.63" x2="320.39" y2="105.92"/><line class="cls-1" x1="285.4" y1="61.63" x2="304.62" y2="105.92"/><line class="cls-1" x1="316.93" y1="61.63" x2="336.15" y2="105.92"/><line class="cls-1" x1="396.01" y1="61.63" x2="415.24" y2="105.92"/><line class="cls-1" x1="380.25" y1="61.63" x2="399.47" y2="105.92"/><line class="cls-1" x1="411.78" y1="61.63" x2="431" y2="105.92"/><line class="cls-1" x1="16.62" y1="166.57" x2="35.84" y2="122.28"/><line class="cls-1" x1="0.85" y1="166.57" x2="20.08" y2="122.28"/><line class="cls-1" x1="32.38" y1="166.57" x2="51.61" y2="122.28"/><line class="cls-1" x1="111.47" y1="166.57" x2="130.69" y2="122.28"/><line class="cls-1" x1="95.7" y1="166.57" x2="114.93" y2="122.28"/><line class="cls-1" x1="127.23" y1="166.57" x2="146.46" y2="122.28"/><line class="cls-1" x1="206.31" y1="166.57" x2="225.54" y2="122.28"/><line class="cls-1" x1="190.55" y1="166.57" x2="209.78" y2="122.28"/><line class="cls-1" x1="222.08" y1="166.57" x2="241.3" y2="122.28"/><line class="cls-1" x1="301.16" y1="166.57" x2="320.39" y2="122.28"/><line class="cls-1" x1="285.4" y1="166.57" x2="304.62" y2="122.28"/><line class="cls-1" x1="316.93" y1="166.57" x2="336.15" y2="122.28"/><line class="cls-1" x1="396.01" y1="166.57" x2="415.24" y2="122.28"/><line class="cls-1" x1="380.25" y1="166.57" x2="399.47" y2="122.28"/><line class="cls-1" x1="411.78" y1="166.57" x2="431" y2="122.28"/><line class="cls-1" x1="16.62" y1="183.9" x2="35.84" y2="228.2"/><line class="cls-1" x1="0.85" y1="183.9" x2="20.08" y2="228.2"/><line class="cls-1" x1="32.38" y1="183.9" x2="51.61" y2="228.2"/><line class="cls-1" x1="111.47" y1="183.9" x2="130.69" y2="228.2"/><line class="cls-1" x1="95.7" y1="183.9" x2="114.93" y2="228.2"/><line class="cls-1" x1="127.23" y1="183.9" x2="146.46" y2="228.2"/><line class="cls-1" x1="206.31" y1="183.9" x2="225.54" y2="228.2"/><line class="cls-1" x1="190.55" y1="183.9" x2="209.78" y2="228.2"/><line class="cls-1" x1="222.08" y1="183.9" x2="241.3" y2="228.2"/><line class="cls-1" x1="301.16" y1="183.9" x2="320.39" y2="228.2"/><line class="cls-1" x1="285.4" y1="183.9" x2="304.62" y2="228.2"/><line class="cls-1" x1="316.93" y1="183.9" x2="336.15" y2="228.2"/><line class="cls-1" x1="396.01" y1="183.9" x2="415.24" y2="228.2"/><line class="cls-1" x1="380.25" y1="183.9" x2="399.47" y2="228.2"/><line class="cls-1" x1="411.78" y1="183.9" x2="431" y2="228.2"/><line class="cls-1" x1="16.62" y1="287.88" x2="35.84" y2="243.59"/><line class="cls-1" x1="0.85" y1="287.88" x2="20.08" y2="243.59"/><line class="cls-1" x1="32.38" y1="287.88" x2="51.61" y2="243.59"/><line class="cls-1" x1="111.47" y1="287.88" x2="130.69" y2="243.59"/><line class="cls-1" x1="95.7" y1="287.88" x2="114.93" y2="243.59"/><line class="cls-1" x1="127.23" y1="287.88" x2="146.46" y2="243.59"/><line class="cls-1" x1="206.31" y1="287.88" x2="225.54" y2="243.59"/><line class="cls-1" x1="190.55" y1="287.88" x2="209.78" y2="243.59"/><line class="cls-1" x1="222.08" y1="287.88" x2="241.3" y2="243.59"/><line class="cls-1" x1="301.16" y1="287.88" x2="320.39" y2="243.59"/><line class="cls-1" x1="285.4" y1="287.88" x2="304.62" y2="243.59"/><line class="cls-1" x1="316.93" y1="287.88" x2="336.15" y2="243.59"/><line class="cls-1" x1="396.01" y1="287.88" x2="415.24" y2="243.59"/><line class="cls-1" x1="380.25" y1="287.88" x2="399.47" y2="243.59"/><line class="cls-1" x1="411.78" y1="287.88" x2="431" y2="243.59"/><line class="cls-1" x1="51.62" y1="243.63" x2="70.84" y2="287.92"/><line class="cls-1" x1="35.85" y1="243.63" x2="55.08" y2="287.92"/><line class="cls-1" x1="67.38" y1="243.63" x2="86.61" y2="287.92"/><line class="cls-1" x1="146.47" y1="243.63" x2="165.69" y2="287.92"/><line class="cls-1" x1="130.7" y1="243.63" x2="149.93" y2="287.92"/><line class="cls-1" x1="162.23" y1="243.63" x2="181.46" y2="287.92"/><line class="cls-1" x1="241.31" y1="243.63" x2="260.54" y2="287.92"/><line class="cls-1" x1="225.55" y1="243.63" x2="244.78" y2="287.92"/><line class="cls-1" x1="257.08" y1="243.63" x2="276.3" y2="287.92"/><line class="cls-1" x1="336.16" y1="243.63" x2="355.39" y2="287.92"/><line class="cls-1" x1="320.4" y1="243.63" x2="339.62" y2="287.92"/><line class="cls-1" x1="351.93" y1="243.63" x2="371.15" y2="287.92"/><line class="cls-1" x1="431.01" y1="243.63" x2="450.24" y2="287.92"/><line class="cls-1" x1="415.25" y1="243.63" x2="434.47" y2="287.92"/><line class="cls-1" x1="51.62" y1="-0.1" x2="70.84" y2="44.2"/><line class="cls-1" x1="35.85" y1="-0.1" x2="55.08" y2="44.2"/><line class="cls-1" x1="67.38" y1="-0.1" x2="86.61" y2="44.2"/><line class="cls-1" x1="146.47" y1="-0.1" x2="165.69" y2="44.2"/><line class="cls-1" x1="130.7" y1="-0.1" x2="149.93" y2="44.2"/><line class="cls-1" x1="162.23" y1="-0.1" x2="181.46" y2="44.2"/><line class="cls-1" x1="241.31" y1="-0.1" x2="260.54" y2="44.2"/><line class="cls-1" x1="225.55" y1="-0.1" x2="244.78" y2="44.2"/><line class="cls-1" x1="257.08" y1="-0.1" x2="276.3" y2="44.2"/><line class="cls-1" x1="336.16" y1="-0.1" x2="355.39" y2="44.2"/><line class="cls-1" x1="320.4" y1="-0.1" x2="339.62" y2="44.2"/><line class="cls-1" x1="351.93" y1="-0.1" x2="371.15" y2="44.2"/><line class="cls-1" x1="431.01" y1="-0.1" x2="450.24" y2="44.2"/><line class="cls-1" x1="415.25" y1="-0.1" x2="434.47" y2="44.2"/><line class="cls-1" x1="450.24" y1="166.29" x2="431.01" y2="122"/><line class="cls-1" x1="434.47" y1="166.29" x2="415.25" y2="122"/><line class="cls-1" x1="355.39" y1="166.29" x2="336.16" y2="122"/><line class="cls-1" x1="371.15" y1="166.29" x2="351.93" y2="122"/><line class="cls-1" x1="339.62" y1="166.29" x2="320.4" y2="122"/><line class="cls-1" x1="260.54" y1="166.29" x2="241.31" y2="122"/><line class="cls-1" x1="276.3" y1="166.29" x2="257.08" y2="122"/><line class="cls-1" x1="244.78" y1="166.29" x2="225.55" y2="122"/><line class="cls-1" x1="165.69" y1="166.29" x2="146.47" y2="122"/><line class="cls-1" x1="181.46" y1="166.29" x2="162.23" y2="122"/><line class="cls-1" x1="149.93" y1="166.29" x2="130.7" y2="122"/><line class="cls-1" x1="70.84" y1="166.29" x2="51.62" y2="122"/><line class="cls-1" x1="86.61" y1="166.29" x2="67.38" y2="122"/><line class="cls-1" x1="55.08" y1="166.29" x2="35.85" y2="122"/><line class="cls-1" x1="-18.38" y1="106.57" x2="0.84" y2="62.28"/><line class="cls-1" x1="-2.62" y1="106.57" x2="16.61" y2="62.28"/><line class="cls-1" x1="76.47" y1="106.57" x2="95.69" y2="62.28"/><line class="cls-1" x1="60.7" y1="106.57" x2="79.93" y2="62.28"/><line class="cls-1" x1="92.23" y1="106.57" x2="111.46" y2="62.28"/><line class="cls-1" x1="171.31" y1="106.57" x2="190.54" y2="62.28"/><line class="cls-1" x1="155.55" y1="106.57" x2="174.78" y2="62.28"/><line class="cls-1" x1="187.08" y1="106.57" x2="206.3" y2="62.28"/><line class="cls-1" x1="266.16" y1="106.57" x2="285.39" y2="62.28"/><line class="cls-1" x1="250.4" y1="106.57" x2="269.62" y2="62.28"/><line class="cls-1" x1="281.93" y1="106.57" x2="301.15" y2="62.28"/><line class="cls-1" x1="361.01" y1="106.57" x2="380.24" y2="62.28"/><line class="cls-1" x1="345.25" y1="106.57" x2="364.47" y2="62.28"/><line class="cls-1" x1="376.78" y1="106.57" x2="396" y2="62.28"/><line class="cls-1" x1="-18.38" y1="227.88" x2="0.84" y2="183.59"/><line class="cls-1" x1="-2.62" y1="227.88" x2="16.61" y2="183.59"/><line class="cls-1" x1="76.47" y1="227.88" x2="95.69" y2="183.59"/><line class="cls-1" x1="60.7" y1="227.88" x2="79.93" y2="183.59"/><line class="cls-1" x1="92.23" y1="227.88" x2="111.46" y2="183.59"/><line class="cls-1" x1="171.31" y1="227.88" x2="190.54" y2="183.59"/><line class="cls-1" x1="155.55" y1="227.88" x2="174.78" y2="183.59"/><line class="cls-1" x1="187.08" y1="227.88" x2="206.3" y2="183.59"/><line class="cls-1" x1="266.16" y1="227.88" x2="285.39" y2="183.59"/><line class="cls-1" x1="250.4" y1="227.88" x2="269.62" y2="183.59"/><line class="cls-1" x1="281.93" y1="227.88" x2="301.15" y2="183.59"/><line class="cls-1" x1="361.01" y1="227.88" x2="380.24" y2="183.59"/><line class="cls-1" x1="345.25" y1="227.88" x2="364.47" y2="183.59"/><line class="cls-1" x1="376.78" y1="227.88" x2="396" y2="183.59"/><line class="cls-1" x1="101.13" x2="91.62" y2="21.92"/><line class="cls-1" x1="82.57" x2="92.08" y2="21.92"/><line class="cls-1" x1="194.98" x2="185.47" y2="21.92"/><line class="cls-1" x1="176.56" y1="0.33" x2="185.93" y2="21.92"/><line class="cls-1" x1="290.08" y1="-0.23" x2="280.47" y2="21.92"/><line class="cls-1" x1="271.4" y1="-0.04" x2="280.93" y2="21.92"/><line class="cls-1" x1="385.08" y1="-0.23" x2="375.47" y2="21.92"/><line class="cls-1" x1="366.31" y1="-0.23" x2="375.93" y2="21.92"/><line class="cls-1" x1="67.13" y1="62" x2="57.62" y2="83.92"/><line class="cls-1" x1="48.57" y1="62" x2="58.08" y2="83.92"/><line class="cls-1" x1="160.98" y1="62" x2="151.47" y2="83.92"/><line class="cls-1" x1="142.56" y1="62.33" x2="151.93" y2="83.92"/><line class="cls-1" x1="256.08" y1="61.77" x2="246.47" y2="83.92"/><line class="cls-1" x1="237.4" y1="61.96" x2="246.93" y2="83.92"/><line class="cls-1" x1="351.08" y1="61.77" x2="341.47" y2="83.92"/><line class="cls-1" x1="332.31" y1="61.77" x2="341.93" y2="83.92"/><line class="cls-1" x1="102.13" y1="122" x2="92.62" y2="143.92"/><line class="cls-1" x1="83.57" y1="122" x2="93.08" y2="143.92"/><line class="cls-1" x1="195.98" y1="122" x2="186.47" y2="143.92"/><line class="cls-1" x1="177.56" y1="122.33" x2="186.93" y2="143.92"/><line class="cls-1" x1="291.08" y1="121.77" x2="281.47" y2="143.92"/><line class="cls-1" x1="272.4" y1="121.96" x2="281.93" y2="143.92"/><line class="cls-1" x1="386.08" y1="121.77" x2="376.47" y2="143.92"/><line class="cls-1" x1="367.31" y1="121.77" x2="376.93" y2="143.92"/><line class="cls-1" x1="66.13" y1="184" x2="56.62" y2="205.92"/><line class="cls-1" x1="47.57" y1="184" x2="57.08" y2="205.92"/><line class="cls-1" x1="159.98" y1="184" x2="150.47" y2="205.92"/><line class="cls-1" x1="141.56" y1="184.33" x2="150.93" y2="205.92"/><line class="cls-1" x1="255.08" y1="183.77" x2="245.47" y2="205.92"/><line class="cls-1" x1="236.4" y1="183.96" x2="245.93" y2="205.92"/><line class="cls-1" x1="350.08" y1="183.77" x2="340.47" y2="205.92"/><line class="cls-1" x1="331.31" y1="183.77" x2="340.93" y2="205.92"/><line class="cls-1" x1="101.13" y1="244" x2="91.62" y2="265.92"/><line class="cls-1" x1="82.57" y1="244" x2="92.08" y2="265.92"/><line class="cls-1" x1="194.98" y1="244" x2="185.47" y2="265.92"/><line class="cls-1" x1="176.56" y1="244.33" x2="185.93" y2="265.92"/><line class="cls-1" x1="290.08" y1="243.77" x2="280.47" y2="265.92"/><line class="cls-1" x1="271.4" y1="243.96" x2="280.93" y2="265.92"/><line class="cls-1" x1="385.08" y1="243.77" x2="375.47" y2="265.92"/><line class="cls-1" x1="366.31" y1="243.77" x2="375.93" y2="265.92"/></svg>